<svg xmlns="http://www.w3.org/2000/svg" xmlns:xlink="http://www.w3.org/1999/xlink" width="48" zoomAndPan="magnify" viewBox="0 0 36 36.000001" height="48" preserveAspectRatio="xMidYMid meet" version="1.0"><defs><clipPath id="id1"><path d="M 2.808594 6.90625 L 33.457031 6.90625 L 33.457031 28.070312 L 2.808594 28.070312 Z M 2.808594 6.90625 " clip-rule="nonzero"/></clipPath></defs><path fill="#e4c2c1" d="M 7.019531 11.484375 C 7.019531 11.621094 6.96875 11.738281 6.871094 11.835938 C 6.773438 11.933594 6.652344 11.980469 6.511719 11.980469 C 6.375 11.980469 6.253906 11.933594 6.15625 11.835938 C 6.058594 11.738281 6.007812 11.621094 6.007812 11.484375 C 6.007812 11.34375 6.058594 11.226562 6.15625 11.128906 C 6.253906 11.03125 6.375 10.984375 6.511719 10.984375 C 6.652344 10.984375 6.773438 11.03125 6.871094 11.128906 C 6.96875 11.226562 7.019531 11.34375 7.019531 11.484375 Z M 7.019531 11.484375 " fill-opacity="1" fill-rule="nonzero"/><path fill="#e4c2c1" d="M 23.300781 14.921875 C 23.0625 14.808594 22.871094 14.621094 22.761719 14.398438 C 22.496094 13.835938 21.894531 12.898438 20.875 12.898438 C 19.863281 12.898438 19.257812 13.683594 18.984375 14.152344 C 18.878906 14.335938 18.71875 14.484375 18.53125 14.574219 C 17.996094 14.835938 17.097656 15.40625 17.097656 16.265625 C 17.097656 16.777344 17.34375 17.21875 17.8125 17.535156 C 18.097656 17.726562 18.28125 18.007812 18.324219 18.320312 C 18.4375 19.109375 18.863281 19.570312 19.523438 19.628906 C 19.578125 19.632812 19.628906 19.636719 19.683594 19.636719 C 20.425781 19.636719 20.808594 19.160156 21.144531 18.738281 C 21.363281 18.464844 21.570312 18.207031 21.859375 18.082031 C 22.117188 17.96875 22.539062 17.976562 22.953125 17.984375 C 23.773438 18 24.796875 18.019531 24.96875 17 C 25.097656 16.230469 24.503906 15.492188 23.300781 14.921875 Z M 24.488281 16.921875 C 24.398438 17.472656 23.929688 17.523438 22.960938 17.503906 C 22.496094 17.496094 22.019531 17.488281 21.660156 17.644531 C 21.261719 17.816406 21.007812 18.132812 20.765625 18.441406 C 20.425781 18.863281 20.152344 19.199219 19.5625 19.148438 C 19.40625 19.136719 18.925781 19.09375 18.804688 18.253906 C 18.742188 17.804688 18.488281 17.40625 18.089844 17.136719 C 17.753906 16.910156 17.582031 16.617188 17.582031 16.265625 C 17.582031 15.664062 18.3125 15.21875 18.746094 15.007812 C 19.023438 14.871094 19.25 14.65625 19.40625 14.390625 C 19.625 14.011719 20.109375 13.378906 20.875 13.378906 C 21.628906 13.378906 22.105469 14.144531 22.324219 14.601562 C 22.480469 14.925781 22.75 15.195312 23.089844 15.355469 C 23.664062 15.625 24.609375 16.191406 24.488281 16.921875 Z M 24.488281 16.921875 " fill-opacity="1" fill-rule="nonzero"/><g clip-path="url(#id1)"><path fill="#e4c2c1" d="M 33.347656 20.058594 C 32.316406 19.390625 30.984375 19.742188 30.234375 20.507812 C 29.609375 19.75 28.945312 18.601562 28.945312 17.121094 C 28.945312 17.121094 28.945312 17.117188 28.945312 17.113281 C 28.894531 15.675781 28.523438 14.191406 27.324219 13.15625 C 26.300781 12.277344 25.050781 11.933594 23.777344 11.84375 C 23.769531 11.84375 23.765625 11.839844 23.757812 11.839844 C 22.460938 11.753906 21.144531 11.929688 20.035156 12.078125 C 19.316406 12.175781 18.695312 12.257812 18.207031 12.257812 C 16.5 12.257812 13.601562 11.804688 12.070312 11.238281 C 12.066406 11.238281 12.066406 11.238281 12.066406 11.238281 C 12.0625 11.234375 12.058594 11.238281 12.058594 11.234375 C 11.820312 11.148438 11.617188 11.058594 11.457031 10.964844 C 11.074219 10.75 10.824219 10.351562 10.558594 9.933594 C 10.359375 9.617188 10.148438 9.292969 9.875 9.019531 C 10.375 8.25 9.734375 7.117188 9.703125 7.066406 C 9.644531 6.964844 9.519531 6.921875 9.410156 6.960938 C 9.246094 7.019531 7.960938 7.503906 7.675781 8.269531 C 7.070312 8.0625 6.59375 7.664062 6.214844 7.058594 C 6.164062 6.976562 6.066406 6.933594 5.96875 6.949219 C 5.875 6.964844 5.796875 7.035156 5.773438 7.128906 C 5.585938 7.878906 5.667969 8.507812 6.019531 9.042969 C 5.257812 9.636719 4.820312 10.453125 4.625 10.902344 C 4.546875 11.078125 4.414062 11.226562 4.238281 11.332031 L 3.253906 11.910156 C 2.972656 12.074219 2.820312 12.386719 2.867188 12.707031 C 2.984375 13.476562 3.320312 14.019531 3.816406 14.238281 C 4.195312 14.40625 4.59375 14.449219 5.015625 14.496094 C 5.566406 14.554688 6.132812 14.617188 6.695312 14.980469 C 7.589844 15.5625 8.09375 17.140625 8.164062 18.074219 C 8.1875 18.394531 8.152344 18.664062 8.113281 18.949219 C 8.054688 19.398438 7.992188 19.863281 8.171875 20.535156 C 8.246094 20.820312 8.359375 21.019531 8.492188 21.164062 C 8.492188 21.167969 8.496094 21.167969 8.496094 21.171875 C 8.570312 21.253906 8.648438 21.320312 8.730469 21.375 C 8.832031 21.699219 9.1875 22.941406 9.214844 23.871094 C 9.234375 24.546875 9.144531 25.273438 9.066406 25.761719 C 9.039062 25.925781 8.9375 26.070312 8.785156 26.160156 C 8.285156 26.449219 7.996094 26.917969 7.996094 27.441406 C 7.996094 27.574219 8.105469 27.683594 8.238281 27.683594 L 9.257812 27.683594 C 9.257812 27.730469 9.25 27.773438 9.25 27.824219 C 9.25 27.957031 9.359375 28.0625 9.496094 28.0625 L 11.40625 28.0625 C 11.5625 28.0625 11.710938 28.007812 11.828125 27.910156 C 12.058594 27.710938 12.339844 27.414062 12.417969 27.125 C 12.417969 27.121094 12.417969 27.121094 12.421875 27.117188 C 12.421875 27.109375 12.425781 27.101562 12.425781 27.09375 C 12.472656 26.882812 12.460938 26.71875 12.449219 26.578125 C 12.4375 26.449219 12.429688 26.339844 12.460938 26.195312 C 12.484375 26.097656 12.554688 25.929688 12.628906 25.753906 C 12.796875 25.363281 13.023438 24.832031 13.050781 24.300781 C 13.078125 23.792969 12.957031 23.355469 12.851562 23.078125 C 12.789062 22.917969 12.789062 22.75 12.847656 22.601562 C 12.933594 22.394531 13.078125 22.238281 13.277344 22.128906 C 13.488281 22.019531 13.882812 22.125 14.339844 22.25 C 15 22.425781 15.824219 22.648438 16.789062 22.464844 C 17.597656 22.308594 18.332031 22.042969 19.003906 21.722656 C 19.117188 21.792969 19.304688 21.902344 19.546875 22.035156 C 19.429688 22.210938 19.339844 22.421875 19.289062 22.652344 C 19.210938 22.992188 19.222656 23.339844 19.324219 23.621094 C 19.441406 23.9375 19.660156 24.15625 19.933594 24.214844 C 20.203125 24.277344 20.496094 24.175781 20.738281 23.9375 C 20.957031 23.726562 21.117188 23.421875 21.195312 23.078125 C 21.21875 22.976562 21.234375 22.871094 21.242188 22.769531 C 21.371094 22.8125 21.496094 22.847656 21.621094 22.878906 C 21.582031 23.003906 21.558594 23.136719 21.542969 23.273438 C 21.46875 24.046875 21.839844 24.691406 22.382812 24.742188 C 22.40625 24.746094 22.429688 24.746094 22.449219 24.746094 C 22.46875 24.746094 22.484375 24.742188 22.5 24.742188 L 22.285156 26.082031 C 21.734375 26.367188 21.445312 26.859375 21.445312 27.507812 C 21.445312 27.640625 21.554688 27.746094 21.6875 27.746094 L 23.445312 27.746094 C 23.539062 27.746094 23.621094 27.695312 23.664062 27.613281 C 23.847656 27.230469 24.136719 26.988281 24.539062 26.867188 C 24.546875 26.867188 24.554688 26.859375 24.566406 26.855469 C 24.574219 26.851562 24.582031 26.847656 24.589844 26.84375 C 24.621094 26.824219 24.648438 26.804688 24.667969 26.777344 C 24.667969 26.773438 24.667969 26.773438 24.671875 26.773438 C 24.6875 26.75 24.695312 26.722656 24.703125 26.695312 C 24.707031 26.6875 24.707031 26.675781 24.707031 26.667969 C 24.710938 26.652344 24.714844 26.640625 24.710938 26.628906 C 24.671875 25.519531 24.753906 24.710938 24.976562 24.113281 C 25.230469 24.265625 25.507812 24.308594 25.753906 24.210938 C 25.871094 24.160156 25.96875 24.089844 26.046875 24.003906 C 26.144531 24.167969 26.226562 24.335938 26.285156 24.570312 C 26.457031 25.246094 26.152344 25.910156 26.054688 26.101562 C 25.382812 26.472656 25.042969 27.050781 25.042969 27.824219 C 25.042969 27.957031 25.152344 28.0625 25.285156 28.0625 L 27.636719 28.0625 C 27.761719 28.0625 27.867188 27.96875 27.878906 27.84375 C 27.914062 27.441406 28.101562 27.3125 28.242188 27.25 C 28.464844 27.148438 28.621094 26.957031 28.660156 26.734375 C 28.714844 26.539062 29.25 24.554688 29.09375 23.714844 C 29.035156 23.402344 28.964844 23.15625 28.894531 22.917969 C 28.777344 22.503906 28.667969 22.117188 28.601562 21.378906 C 28.578125 21.125 28.644531 20.648438 28.71875 20.101562 C 28.761719 19.800781 28.808594 19.472656 28.847656 19.121094 C 29.164062 19.925781 29.632812 20.566406 30.050781 21.035156 C 30.054688 21.035156 30.058594 21.035156 30.058594 21.039062 C 30.0625 21.042969 30.0625 21.046875 30.066406 21.046875 C 30.410156 21.375 30.921875 21.550781 31.464844 21.550781 C 31.679688 21.550781 31.902344 21.523438 32.121094 21.464844 C 32.796875 21.285156 33.292969 20.859375 33.449219 20.328125 C 33.480469 20.226562 33.4375 20.117188 33.347656 20.058594 Z M 27.515625 14.074219 C 27.183594 14.09375 26.832031 14.027344 26.539062 13.878906 C 26.253906 13.730469 25.925781 13.703125 25.621094 13.808594 C 25.269531 13.921875 24.75 14.011719 24.246094 13.78125 C 23.671875 13.515625 23.832031 12.699219 23.9375 12.34375 C 25.054688 12.445312 26.132812 12.769531 27.003906 13.519531 C 27.199219 13.6875 27.367188 13.875 27.515625 14.074219 Z M 12.101562 11.753906 C 13.347656 12.175781 15.257812 12.523438 16.835938 12.667969 C 16.757812 13.054688 16.507812 13.804688 15.726562 13.933594 C 15.050781 14.042969 14.417969 13.820312 14.007812 13.613281 C 13.65625 13.433594 13.257812 13.402344 12.894531 13.527344 C 12.589844 13.628906 12.175781 13.703125 11.925781 13.484375 C 11.648438 13.242188 11.84375 12.390625 12.101562 11.753906 Z M 9.375 7.492188 C 9.519531 7.820312 9.753906 8.503906 9.378906 8.867188 C 9.054688 9.179688 8.671875 9.179688 8.445312 9.085938 C 8.226562 8.996094 8.101562 8.808594 8.101562 8.574219 C 8.101562 8.167969 8.8125 7.730469 9.375 7.492188 Z M 6.160156 7.804688 C 6.414062 8.09375 6.699219 8.328125 7.019531 8.503906 C 6.804688 8.574219 6.609375 8.664062 6.425781 8.769531 C 6.242188 8.484375 6.148438 8.171875 6.160156 7.804688 Z M 3.347656 12.636719 C 3.328125 12.511719 3.390625 12.386719 3.503906 12.320312 L 3.953125 12.054688 C 4.140625 12.113281 4.582031 12.289062 4.71875 12.648438 C 4.851562 12.996094 4.71875 13.605469 4.613281 13.960938 C 4.402344 13.925781 4.199219 13.882812 4.015625 13.800781 C 3.554688 13.597656 3.398438 12.984375 3.347656 12.636719 Z M 10.4375 26.207031 C 10.210938 26.015625 9.90625 25.914062 9.53125 25.898438 C 9.535156 25.878906 9.542969 25.859375 9.546875 25.839844 C 9.628906 25.328125 9.722656 24.570312 9.703125 23.855469 C 9.679688 23.113281 9.46875 22.214844 9.320312 21.664062 C 9.484375 21.742188 9.621094 21.832031 9.726562 22.007812 C 9.976562 22.441406 9.984375 22.800781 9.992188 23.183594 C 9.996094 23.386719 10 23.59375 10.039062 23.816406 C 10.105469 24.183594 10.226562 24.589844 10.332031 24.945312 C 10.429688 25.257812 10.515625 25.554688 10.527344 25.695312 C 10.535156 25.832031 10.523438 26.054688 10.4375 26.207031 Z M 8.605469 20.257812 C 8.5 19.757812 8.542969 19.394531 8.597656 19.011719 C 8.636719 18.714844 8.675781 18.410156 8.648438 18.039062 C 8.613281 17.578125 8.484375 16.957031 8.246094 16.351562 C 8.335938 16.253906 8.507812 16.105469 8.75 16.105469 C 8.878906 16.105469 9.046875 16.207031 9.222656 16.390625 C 9.511719 16.6875 9.917969 16.839844 10.339844 16.800781 C 10.6875 16.769531 11.277344 16.765625 11.347656 17.101562 C 11.488281 17.808594 10.941406 18.480469 10.507812 18.675781 C 10.3125 18.761719 10.167969 18.765625 10.003906 18.769531 C 9.792969 18.773438 9.554688 18.777344 9.253906 18.976562 C 8.945312 19.179688 8.734375 19.761719 8.605469 20.257812 Z M 8.511719 27.203125 C 8.601562 26.871094 8.863281 26.671875 9.03125 26.574219 C 9.121094 26.519531 9.195312 26.453125 9.265625 26.382812 C 9.589844 26.359375 9.84375 26.398438 10.027344 26.503906 C 9.691406 26.714844 9.476562 26.921875 9.359375 27.203125 Z M 11.507812 27.546875 C 11.480469 27.570312 11.445312 27.582031 11.40625 27.582031 L 9.75 27.582031 C 9.792969 27.273438 9.964844 27.085938 10.507812 26.78125 C 11.074219 26.738281 11.53125 26.847656 11.894531 27.117188 C 11.824219 27.238281 11.6875 27.390625 11.507812 27.546875 Z M 16.699219 21.992188 C 15.84375 22.15625 15.082031 21.949219 14.46875 21.785156 C 14.03125 21.667969 13.640625 21.566406 13.308594 21.621094 C 13.359375 21.019531 13.5625 20.085938 14.183594 19.855469 C 14.792969 19.625 15.28125 19.757812 15.582031 19.90625 C 15.824219 20.027344 16.101562 20.054688 16.359375 19.984375 C 17.121094 19.777344 17.746094 19.753906 18.070312 19.921875 C 18.503906 20.140625 18.53125 20.984375 18.496094 21.425781 C 17.9375 21.667969 17.339844 21.871094 16.699219 21.992188 Z M 23.484375 23.007812 C 23.71875 22.980469 23.957031 22.9375 24.191406 22.878906 C 24.214844 23.019531 24.257812 23.160156 24.316406 23.296875 C 24.390625 23.476562 24.484375 23.636719 24.59375 23.773438 C 24.328125 24.375 24.207031 25.148438 24.21875 26.21875 C 23.785156 26.011719 23.308594 25.925781 22.792969 25.96875 L 23.03125 24.488281 C 23.070312 24.453125 23.113281 24.414062 23.148438 24.367188 C 23.335938 24.128906 23.457031 23.804688 23.492188 23.457031 C 23.503906 23.304688 23.503906 23.152344 23.484375 23.007812 Z M 23.296875 27.265625 L 21.949219 27.265625 C 22.007812 26.902344 22.21875 26.640625 22.578125 26.476562 C 23.082031 26.394531 23.527344 26.4375 23.933594 26.613281 C 23.671875 26.769531 23.460938 26.988281 23.296875 27.265625 Z M 25.566406 23.765625 C 25.351562 23.851562 24.96875 23.609375 24.765625 23.113281 C 24.6875 22.933594 24.648438 22.746094 24.652344 22.570312 C 24.652344 22.496094 24.617188 22.421875 24.554688 22.375 C 24.492188 22.328125 24.410156 22.316406 24.335938 22.339844 C 23.953125 22.457031 23.5625 22.527344 23.175781 22.554688 C 23.042969 22.5625 22.941406 22.6875 22.949219 22.820312 C 22.949219 22.839844 22.953125 22.855469 22.960938 22.875 C 23.007812 23.035156 23.023438 23.222656 23.007812 23.410156 C 22.980469 23.667969 22.894531 23.90625 22.765625 24.070312 C 22.660156 24.203125 22.539062 24.277344 22.429688 24.265625 C 22.199219 24.242188 21.976562 23.847656 22.027344 23.320312 C 22.046875 23.136719 22.09375 22.964844 22.167969 22.820312 C 22.199219 22.753906 22.195312 22.675781 22.164062 22.605469 C 22.132812 22.539062 22.066406 22.492188 21.992188 22.476562 C 21.707031 22.414062 21.398438 22.324219 21.074219 22.203125 C 20.992188 22.171875 20.902344 22.1875 20.835938 22.238281 C 20.769531 22.292969 20.734375 22.375 20.75 22.460938 C 20.773438 22.621094 20.761719 22.796875 20.722656 22.972656 C 20.664062 23.222656 20.546875 23.453125 20.398438 23.597656 C 20.277344 23.714844 20.144531 23.769531 20.039062 23.746094 C 19.933594 23.722656 19.839844 23.617188 19.785156 23.460938 C 19.710938 23.265625 19.707031 23.007812 19.761719 22.757812 C 19.820312 22.507812 19.9375 22.277344 20.089844 22.132812 C 20.105469 22.113281 20.125 22.085938 20.136719 22.066406 C 20.164062 22.007812 20.171875 21.941406 20.152344 21.882812 C 20.132812 21.820312 20.089844 21.769531 20.03125 21.742188 C 19.832031 21.640625 19.65625 21.546875 19.515625 21.464844 C 20.179688 21.113281 20.777344 20.722656 21.316406 20.375 C 22.476562 19.617188 23.394531 19.019531 24.101562 19.359375 C 24.613281 19.609375 24.707031 20.113281 24.820312 20.914062 C 24.875 21.292969 24.929688 21.6875 25.054688 22.082031 C 25.289062 22.816406 25.535156 23.230469 25.746094 23.546875 C 25.730469 23.691406 25.597656 23.753906 25.566406 23.765625 Z M 26.261719 23.449219 C 26.035156 23.117188 25.777344 22.742188 25.519531 21.9375 C 25.402344 21.578125 25.351562 21.207031 25.300781 20.847656 C 25.1875 20.054688 25.082031 19.300781 24.316406 18.929688 C 23.359375 18.464844 22.339844 19.128906 21.046875 19.972656 C 20.445312 20.367188 19.761719 20.8125 18.992188 21.191406 C 19 20.664062 18.910156 19.808594 18.292969 19.496094 C 17.730469 19.207031 16.859375 19.351562 16.230469 19.519531 C 16.085938 19.558594 15.933594 19.542969 15.800781 19.476562 C 15.480469 19.320312 14.824219 19.101562 14.011719 19.40625 C 12.929688 19.8125 12.820312 21.40625 12.8125 21.867188 C 12.628906 22.015625 12.488281 22.203125 12.398438 22.421875 C 12.292969 22.683594 12.289062 22.976562 12.394531 23.25 C 12.46875 23.441406 12.589844 23.828125 12.566406 24.273438 C 12.542969 24.722656 12.34375 25.1875 12.183594 25.566406 C 12.09375 25.773438 12.015625 25.953125 11.984375 26.097656 C 11.941406 26.292969 11.953125 26.449219 11.960938 26.585938 C 11.660156 26.417969 11.3125 26.320312 10.925781 26.296875 C 11.019531 26.042969 11.019531 25.773438 11.011719 25.664062 C 10.996094 25.464844 10.910156 25.175781 10.796875 24.808594 C 10.695312 24.464844 10.578125 24.074219 10.515625 23.734375 C 10.484375 23.546875 10.480469 23.367188 10.476562 23.175781 C 10.46875 22.769531 10.460938 22.308594 10.144531 21.769531 C 9.929688 21.398438 9.617188 21.265625 9.34375 21.148438 C 9.195312 21.085938 9.0625 21.027344 8.949219 20.9375 C 9.054688 20.351562 9.292969 19.527344 9.523438 19.375 C 9.707031 19.253906 9.828125 19.253906 10.015625 19.25 C 10.195312 19.246094 10.417969 19.242188 10.707031 19.113281 C 11.300781 18.847656 12.015625 17.96875 11.820312 17.007812 C 11.757812 16.707031 11.476562 16.214844 10.296875 16.320312 C 10.023438 16.347656 9.757812 16.25 9.574219 16.058594 C 9.296875 15.773438 9.019531 15.625 8.75 15.625 C 8.441406 15.625 8.203125 15.753906 8.039062 15.886719 C 7.773438 15.359375 7.417969 14.878906 6.960938 14.578125 C 6.3125 14.160156 5.671875 14.082031 5.101562 14.023438 C 5.210938 13.636719 5.351562 12.957031 5.171875 12.480469 C 5.035156 12.121094 4.738281 11.890625 4.472656 11.753906 L 4.484375 11.742188 C 4.75 11.589844 4.949219 11.363281 5.070312 11.089844 C 5.339844 10.476562 6.113281 9.078125 7.648438 8.84375 C 7.726562 9.152344 7.941406 9.398438 8.253906 9.53125 C 8.410156 9.59375 8.570312 9.625 8.734375 9.625 C 9.011719 9.625 9.289062 9.53125 9.53125 9.359375 C 9.769531 9.601562 9.960938 9.894531 10.144531 10.1875 C 10.429688 10.640625 10.726562 11.105469 11.210938 11.382812 C 11.335938 11.453125 11.480469 11.519531 11.644531 11.589844 C 11.417969 12.140625 11.023438 13.34375 11.601562 13.847656 C 11.9375 14.140625 12.4375 14.1875 13.046875 13.980469 C 13.289062 13.902344 13.550781 13.921875 13.785156 14.042969 C 14.171875 14.234375 14.730469 14.441406 15.359375 14.441406 C 15.503906 14.441406 15.652344 14.429688 15.808594 14.40625 C 16.804688 14.242188 17.210938 13.328125 17.320312 12.707031 C 17.640625 12.726562 17.9375 12.738281 18.207031 12.738281 C 18.726562 12.738281 19.363281 12.652344 20.097656 12.554688 C 21.101562 12.417969 22.277344 12.265625 23.441406 12.308594 C 23.308594 12.824219 23.183594 13.820312 24.039062 14.214844 C 24.691406 14.515625 25.339844 14.40625 25.773438 14.261719 C 25.953125 14.203125 26.144531 14.21875 26.3125 14.304688 C 26.640625 14.472656 27.015625 14.558594 27.386719 14.558594 C 27.53125 14.558594 27.671875 14.542969 27.8125 14.515625 C 28.335938 15.449219 28.476562 16.570312 28.460938 17.640625 C 27.585938 17.730469 26.253906 18.214844 26.285156 19.605469 C 26.324219 21.167969 27.742188 21.886719 28.199219 22.078125 C 28.265625 22.476562 28.347656 22.769531 28.425781 23.046875 C 28.496094 23.285156 28.558594 23.511719 28.617188 23.804688 C 28.714844 24.332031 28.457031 25.554688 28.277344 26.273438 C 27.839844 26.003906 27.230469 25.886719 26.644531 25.953125 C 26.777344 25.585938 26.902344 25.035156 26.753906 24.457031 C 26.640625 24 26.457031 23.730469 26.261719 23.449219 Z M 28.238281 20.035156 C 28.15625 20.636719 28.089844 21.113281 28.117188 21.421875 C 28.121094 21.453125 28.121094 21.480469 28.125 21.507812 C 27.625 21.238281 26.796875 20.640625 26.773438 19.59375 C 26.746094 18.476562 27.90625 18.195312 28.445312 18.125 C 28.40625 18.824219 28.316406 19.488281 28.238281 20.035156 Z M 28.039062 26.8125 C 27.808594 26.914062 27.53125 27.132812 27.429688 27.582031 L 25.542969 27.582031 C 25.605469 27.101562 25.863281 26.746094 26.328125 26.503906 C 26.9375 26.3125 27.710938 26.429688 28.128906 26.75 C 28.097656 26.78125 28.0625 26.804688 28.039062 26.8125 Z M 31.996094 21 C 31.480469 21.136719 30.949219 21.074219 30.582031 20.839844 C 31.140625 20.261719 32.113281 19.96875 32.910156 20.363281 C 32.753906 20.65625 32.421875 20.886719 31.996094 21 Z M 31.996094 21 " fill-opacity="1" fill-rule="nonzero"/></g></svg>