<svg xmlns="http://www.w3.org/2000/svg" xmlns:xlink="http://www.w3.org/1999/xlink" width="48" zoomAndPan="magnify" viewBox="0 0 36 36.000001" height="48" preserveAspectRatio="xMidYMid meet" version="1.0"><defs><clipPath id="id1"><path d="M 5.132812 13.558594 L 30.671875 13.558594 L 30.671875 31.800781 L 5.132812 31.800781 Z M 5.132812 13.558594 " clip-rule="nonzero"/></clipPath></defs><path fill="#ffe9f0" d="M 8.640625 17.5 C 8.640625 17.621094 8.597656 17.722656 8.515625 17.804688 C 8.433594 17.890625 8.335938 17.929688 8.21875 17.929688 C 8.101562 17.929688 8.003906 17.890625 7.921875 17.804688 C 7.839844 17.722656 7.796875 17.621094 7.796875 17.5 C 7.796875 17.382812 7.839844 17.28125 7.921875 17.195312 C 8.003906 17.113281 8.101562 17.070312 8.21875 17.070312 C 8.335938 17.070312 8.433594 17.113281 8.515625 17.195312 C 8.597656 17.28125 8.640625 17.382812 8.640625 17.5 Z M 8.640625 17.5 " fill-opacity="1" fill-rule="nonzero"/><path fill="#ffe9f0" d="M 22.207031 20.464844 C 22.007812 20.367188 21.851562 20.207031 21.761719 20.011719 C 21.539062 19.53125 21.035156 18.722656 20.1875 18.722656 C 19.34375 18.722656 18.839844 19.398438 18.613281 19.800781 C 18.523438 19.960938 18.390625 20.085938 18.234375 20.167969 C 17.789062 20.394531 17.039062 20.882812 17.039062 21.621094 C 17.039062 22.066406 17.246094 22.445312 17.636719 22.71875 C 17.875 22.882812 18.023438 23.125 18.0625 23.394531 C 18.15625 24.074219 18.511719 24.472656 19.058594 24.523438 C 19.105469 24.527344 19.148438 24.527344 19.191406 24.527344 C 19.8125 24.527344 20.132812 24.121094 20.414062 23.753906 C 20.59375 23.519531 20.765625 23.296875 21.007812 23.191406 C 21.222656 23.09375 21.574219 23.097656 21.917969 23.105469 C 22.605469 23.117188 23.457031 23.136719 23.597656 22.257812 C 23.707031 21.59375 23.210938 20.957031 22.207031 20.464844 Z M 23.199219 22.191406 C 23.121094 22.664062 22.734375 22.707031 21.925781 22.691406 C 21.539062 22.683594 21.140625 22.675781 20.84375 22.8125 C 20.511719 22.960938 20.300781 23.234375 20.09375 23.5 C 19.8125 23.863281 19.585938 24.152344 19.09375 24.109375 C 18.964844 24.097656 18.5625 24.0625 18.464844 23.339844 C 18.410156 22.949219 18.199219 22.609375 17.867188 22.375 C 17.585938 22.179688 17.445312 21.925781 17.445312 21.621094 C 17.445312 21.105469 18.050781 20.722656 18.414062 20.539062 C 18.644531 20.421875 18.832031 20.238281 18.964844 20.007812 C 19.148438 19.683594 19.550781 19.136719 20.1875 19.136719 C 20.8125 19.136719 21.214844 19.796875 21.394531 20.191406 C 21.523438 20.46875 21.75 20.699219 22.035156 20.839844 C 22.511719 21.074219 23.300781 21.558594 23.199219 22.191406 Z M 23.199219 22.191406 " fill-opacity="1" fill-rule="nonzero"/><g clip-path="url(#id1)"><path fill="#ffe9f0" d="M 30.582031 24.894531 C 29.722656 24.320312 28.609375 24.621094 27.988281 25.28125 C 27.464844 24.628906 26.914062 23.640625 26.914062 22.363281 C 26.914062 22.359375 26.914062 22.359375 26.914062 22.355469 C 26.871094 21.113281 26.558594 19.835938 25.558594 18.945312 C 24.710938 18.183594 23.664062 17.886719 22.605469 17.8125 C 22.601562 17.808594 22.59375 17.808594 22.589844 17.808594 C 21.507812 17.734375 20.410156 17.886719 19.488281 18.015625 C 18.886719 18.097656 18.371094 18.167969 17.964844 18.167969 C 16.542969 18.167969 14.125 17.777344 12.847656 17.289062 C 12.84375 17.289062 12.839844 17.289062 12.839844 17.289062 C 12.640625 17.210938 12.472656 17.132812 12.335938 17.054688 C 12.019531 16.867188 11.8125 16.527344 11.589844 16.164062 C 11.425781 15.890625 11.25 15.613281 11.019531 15.375 C 11.4375 14.714844 10.902344 13.738281 10.878906 13.695312 C 10.828125 13.605469 10.726562 13.566406 10.632812 13.601562 C 10.496094 13.652344 9.425781 14.070312 9.1875 14.730469 C 8.683594 14.550781 8.285156 14.207031 7.96875 13.6875 C 7.925781 13.617188 7.847656 13.578125 7.765625 13.589844 C 7.6875 13.605469 7.621094 13.664062 7.601562 13.746094 C 7.445312 14.394531 7.515625 14.9375 7.808594 15.394531 C 7.171875 15.910156 6.808594 16.613281 6.644531 17 C 6.582031 17.152344 6.46875 17.28125 6.324219 17.371094 L 5.503906 17.867188 C 5.265625 18.011719 5.140625 18.28125 5.179688 18.554688 C 5.277344 19.21875 5.558594 19.6875 5.972656 19.878906 C 6.289062 20.023438 6.621094 20.058594 6.96875 20.097656 C 7.429688 20.148438 7.902344 20.203125 8.371094 20.515625 C 9.117188 21.019531 9.535156 22.378906 9.59375 23.183594 C 9.613281 23.460938 9.585938 23.691406 9.554688 23.9375 C 9.503906 24.324219 9.453125 24.726562 9.601562 25.304688 C 9.664062 25.550781 9.757812 25.722656 9.867188 25.847656 C 9.871094 25.851562 9.871094 25.851562 9.871094 25.851562 C 9.933594 25.925781 10 25.980469 10.066406 26.03125 C 10.148438 26.308594 10.449219 27.378906 10.472656 28.179688 C 10.488281 28.765625 10.414062 29.390625 10.347656 29.8125 C 10.324219 29.953125 10.238281 30.078125 10.113281 30.152344 C 9.695312 30.402344 9.457031 30.804688 9.457031 31.261719 C 9.457031 31.375 9.546875 31.46875 9.65625 31.46875 L 10.507812 31.46875 C 10.503906 31.507812 10.5 31.542969 10.5 31.589844 C 10.5 31.703125 10.59375 31.796875 10.703125 31.796875 L 12.296875 31.796875 C 12.425781 31.796875 12.550781 31.746094 12.648438 31.660156 C 12.839844 31.492188 13.074219 31.238281 13.140625 30.984375 C 13.140625 30.984375 13.140625 30.980469 13.140625 30.980469 C 13.144531 30.972656 13.144531 30.964844 13.148438 30.957031 C 13.183594 30.777344 13.175781 30.636719 13.164062 30.515625 C 13.15625 30.402344 13.148438 30.308594 13.175781 30.1875 C 13.195312 30.101562 13.253906 29.957031 13.316406 29.800781 C 13.453125 29.46875 13.644531 29.007812 13.667969 28.550781 C 13.6875 28.113281 13.589844 27.738281 13.5 27.496094 C 13.449219 27.359375 13.449219 27.214844 13.5 27.085938 C 13.570312 26.910156 13.6875 26.773438 13.855469 26.679688 C 14.03125 26.585938 14.359375 26.675781 14.742188 26.78125 C 15.292969 26.9375 15.976562 27.125 16.785156 26.96875 C 17.457031 26.835938 18.070312 26.605469 18.628906 26.332031 C 18.722656 26.390625 18.878906 26.484375 19.082031 26.597656 C 18.984375 26.75 18.910156 26.933594 18.867188 27.128906 C 18.800781 27.425781 18.8125 27.722656 18.894531 27.964844 C 18.992188 28.238281 19.175781 28.425781 19.402344 28.480469 C 19.628906 28.53125 19.871094 28.445312 20.074219 28.238281 C 20.253906 28.054688 20.390625 27.792969 20.453125 27.5 C 20.472656 27.410156 20.488281 27.320312 20.492188 27.230469 C 20.601562 27.265625 20.707031 27.300781 20.808594 27.328125 C 20.777344 27.433594 20.753906 27.546875 20.746094 27.664062 C 20.683594 28.332031 20.988281 28.890625 21.445312 28.933594 C 21.464844 28.933594 21.480469 28.9375 21.5 28.9375 C 21.515625 28.9375 21.527344 28.929688 21.539062 28.929688 L 21.363281 30.089844 C 20.902344 30.335938 20.660156 30.757812 20.660156 31.316406 C 20.660156 31.429688 20.753906 31.523438 20.863281 31.523438 L 22.328125 31.523438 C 22.40625 31.523438 22.476562 31.476562 22.511719 31.40625 C 22.664062 31.078125 22.90625 30.867188 23.242188 30.765625 C 23.25 30.761719 23.253906 30.757812 23.261719 30.753906 C 23.269531 30.75 23.277344 30.746094 23.28125 30.742188 C 23.308594 30.730469 23.332031 30.710938 23.347656 30.6875 C 23.347656 30.683594 23.347656 30.683594 23.351562 30.683594 C 23.363281 30.664062 23.371094 30.640625 23.378906 30.617188 C 23.378906 30.609375 23.378906 30.601562 23.382812 30.589844 C 23.382812 30.578125 23.386719 30.570312 23.386719 30.558594 C 23.351562 29.601562 23.421875 28.902344 23.605469 28.390625 C 23.816406 28.523438 24.046875 28.558594 24.253906 28.472656 C 24.351562 28.429688 24.433594 28.371094 24.5 28.296875 C 24.578125 28.433594 24.644531 28.582031 24.695312 28.785156 C 24.839844 29.367188 24.585938 29.941406 24.503906 30.105469 C 23.945312 30.425781 23.660156 30.921875 23.660156 31.589844 C 23.660156 31.703125 23.75 31.796875 23.863281 31.796875 L 25.820312 31.796875 C 25.925781 31.796875 26.011719 31.714844 26.023438 31.605469 C 26.054688 31.257812 26.210938 31.148438 26.324219 31.09375 C 26.511719 31.007812 26.640625 30.84375 26.675781 30.652344 C 26.71875 30.480469 27.167969 28.769531 27.035156 28.046875 C 26.988281 27.777344 26.929688 27.5625 26.871094 27.359375 C 26.773438 27.003906 26.679688 26.667969 26.625 26.03125 C 26.605469 25.8125 26.660156 25.402344 26.726562 24.929688 C 26.757812 24.671875 26.796875 24.386719 26.832031 24.085938 C 27.097656 24.777344 27.484375 25.332031 27.835938 25.734375 C 27.835938 25.738281 27.839844 25.738281 27.839844 25.738281 C 27.84375 25.742188 27.84375 25.746094 27.84375 25.746094 C 28.132812 26.027344 28.558594 26.179688 29.011719 26.179688 C 29.191406 26.179688 29.375 26.15625 29.558594 26.105469 C 30.121094 25.953125 30.535156 25.585938 30.664062 25.125 C 30.691406 25.039062 30.65625 24.945312 30.582031 24.894531 Z M 25.722656 19.734375 C 25.445312 19.753906 25.152344 19.695312 24.90625 19.566406 C 24.667969 19.4375 24.394531 19.414062 24.140625 19.503906 C 23.851562 19.605469 23.417969 19.683594 22.996094 19.480469 C 22.515625 19.253906 22.652344 18.550781 22.738281 18.242188 C 23.667969 18.332031 24.570312 18.609375 25.292969 19.257812 C 25.457031 19.402344 25.597656 19.5625 25.722656 19.734375 Z M 12.875 17.734375 C 13.914062 18.097656 15.503906 18.398438 16.820312 18.523438 C 16.757812 18.855469 16.546875 19.5 15.898438 19.613281 C 15.332031 19.707031 14.808594 19.515625 14.464844 19.335938 C 14.171875 19.183594 13.839844 19.15625 13.535156 19.261719 C 13.28125 19.351562 12.9375 19.414062 12.730469 19.226562 C 12.496094 19.019531 12.660156 18.28125 12.875 17.734375 Z M 10.601562 14.058594 C 10.722656 14.34375 10.917969 14.933594 10.605469 15.246094 C 10.339844 15.515625 10.019531 15.515625 9.828125 15.433594 C 9.644531 15.355469 9.542969 15.195312 9.542969 14.992188 C 9.542969 14.640625 10.136719 14.265625 10.601562 14.058594 Z M 7.925781 14.328125 C 8.136719 14.578125 8.375 14.777344 8.640625 14.933594 C 8.464844 14.992188 8.300781 15.070312 8.148438 15.160156 C 7.992188 14.917969 7.917969 14.644531 7.925781 14.328125 Z M 5.582031 18.496094 C 5.566406 18.386719 5.617188 18.28125 5.710938 18.222656 L 6.085938 17.996094 C 6.242188 18.046875 6.609375 18.195312 6.722656 18.507812 C 6.832031 18.804688 6.722656 19.332031 6.636719 19.636719 C 6.460938 19.609375 6.289062 19.570312 6.136719 19.5 C 5.753906 19.324219 5.625 18.796875 5.582031 18.496094 Z M 11.492188 30.195312 C 11.300781 30.03125 11.046875 29.941406 10.734375 29.929688 C 10.738281 29.914062 10.742188 29.894531 10.746094 29.878906 C 10.816406 29.4375 10.894531 28.785156 10.875 28.167969 C 10.859375 27.527344 10.683594 26.753906 10.558594 26.277344 C 10.695312 26.34375 10.808594 26.421875 10.894531 26.574219 C 11.105469 26.949219 11.113281 27.257812 11.117188 27.585938 C 11.121094 27.761719 11.125 27.941406 11.15625 28.132812 C 11.210938 28.453125 11.3125 28.800781 11.402344 29.105469 C 11.480469 29.375 11.554688 29.632812 11.5625 29.753906 C 11.570312 29.871094 11.558594 30.0625 11.492188 30.195312 Z M 9.960938 25.0625 C 9.875 24.636719 9.910156 24.320312 9.953125 23.992188 C 9.988281 23.738281 10.019531 23.472656 9.996094 23.152344 C 9.96875 22.753906 9.859375 22.21875 9.664062 21.699219 C 9.738281 21.613281 9.878906 21.488281 10.082031 21.488281 C 10.191406 21.488281 10.332031 21.574219 10.476562 21.730469 C 10.71875 21.988281 11.058594 22.117188 11.410156 22.085938 C 11.699219 22.058594 12.1875 22.054688 12.246094 22.347656 C 12.367188 22.953125 11.910156 23.535156 11.546875 23.699219 C 11.382812 23.777344 11.265625 23.777344 11.128906 23.78125 C 10.953125 23.785156 10.753906 23.789062 10.503906 23.960938 C 10.246094 24.136719 10.070312 24.636719 9.960938 25.0625 Z M 9.886719 31.054688 C 9.960938 30.765625 10.175781 30.59375 10.316406 30.511719 C 10.390625 30.464844 10.453125 30.410156 10.511719 30.347656 C 10.785156 30.324219 10.996094 30.359375 11.148438 30.453125 C 10.867188 30.632812 10.6875 30.808594 10.589844 31.054688 Z M 12.382812 31.351562 C 12.359375 31.371094 12.328125 31.382812 12.296875 31.382812 L 10.917969 31.382812 C 10.953125 31.113281 11.09375 30.953125 11.546875 30.691406 C 12.019531 30.652344 12.398438 30.746094 12.703125 30.980469 C 12.644531 31.085938 12.53125 31.214844 12.382812 31.351562 Z M 16.707031 26.5625 C 15.996094 26.703125 15.359375 26.523438 14.847656 26.382812 C 14.484375 26.28125 14.160156 26.191406 13.882812 26.242188 C 13.921875 25.722656 14.09375 24.917969 14.613281 24.71875 C 15.117188 24.523438 15.523438 24.632812 15.777344 24.765625 C 15.976562 24.867188 16.207031 24.890625 16.425781 24.828125 C 17.058594 24.652344 17.578125 24.632812 17.851562 24.777344 C 18.210938 24.964844 18.234375 25.695312 18.203125 26.070312 C 17.742188 26.28125 17.242188 26.457031 16.707031 26.5625 Z M 22.359375 27.4375 C 22.558594 27.414062 22.753906 27.375 22.953125 27.324219 C 22.972656 27.445312 23.007812 27.566406 23.054688 27.6875 C 23.117188 27.84375 23.195312 27.980469 23.289062 28.097656 C 23.066406 28.617188 22.964844 29.285156 22.972656 30.203125 C 22.613281 30.027344 22.21875 29.953125 21.789062 29.988281 L 21.984375 28.714844 C 22.019531 28.679688 22.050781 28.648438 22.082031 28.609375 C 22.238281 28.402344 22.339844 28.125 22.367188 27.824219 C 22.378906 27.691406 22.375 27.5625 22.359375 27.4375 Z M 22.207031 31.109375 L 21.082031 31.109375 C 21.132812 30.792969 21.304688 30.570312 21.605469 30.429688 C 22.027344 30.355469 22.398438 30.394531 22.738281 30.542969 C 22.519531 30.679688 22.339844 30.871094 22.207031 31.109375 Z M 24.097656 28.089844 C 23.917969 28.164062 23.601562 27.953125 23.429688 27.527344 C 23.363281 27.371094 23.332031 27.210938 23.335938 27.058594 C 23.335938 26.992188 23.304688 26.929688 23.253906 26.890625 C 23.203125 26.851562 23.132812 26.839844 23.074219 26.859375 C 22.753906 26.960938 22.425781 27.023438 22.105469 27.046875 C 21.992188 27.054688 21.910156 27.160156 21.914062 27.273438 C 21.917969 27.289062 21.917969 27.308594 21.925781 27.320312 C 21.964844 27.460938 21.980469 27.621094 21.964844 27.785156 C 21.941406 28.003906 21.871094 28.210938 21.761719 28.355469 C 21.675781 28.46875 21.574219 28.53125 21.484375 28.519531 C 21.289062 28.5 21.105469 28.164062 21.148438 27.703125 C 21.164062 27.546875 21.203125 27.398438 21.265625 27.273438 C 21.292969 27.21875 21.289062 27.148438 21.261719 27.089844 C 21.234375 27.035156 21.179688 26.992188 21.117188 26.976562 C 20.882812 26.925781 20.625 26.847656 20.351562 26.742188 C 20.285156 26.714844 20.210938 26.726562 20.15625 26.773438 C 20.097656 26.820312 20.070312 26.894531 20.082031 26.964844 C 20.101562 27.101562 20.09375 27.253906 20.058594 27.40625 C 20.011719 27.621094 19.914062 27.820312 19.789062 27.945312 C 19.6875 28.046875 19.578125 28.09375 19.492188 28.074219 C 19.402344 28.054688 19.324219 27.964844 19.277344 27.828125 C 19.21875 27.65625 19.210938 27.4375 19.261719 27.222656 C 19.308594 27.003906 19.40625 26.808594 19.53125 26.679688 C 19.546875 26.667969 19.5625 26.644531 19.570312 26.625 C 19.597656 26.574219 19.601562 26.519531 19.585938 26.464844 C 19.566406 26.414062 19.53125 26.371094 19.484375 26.34375 C 19.316406 26.257812 19.171875 26.175781 19.054688 26.109375 C 19.609375 25.800781 20.105469 25.46875 20.554688 25.164062 C 21.523438 24.511719 22.289062 23.996094 22.875 24.292969 C 23.300781 24.507812 23.378906 24.941406 23.476562 25.632812 C 23.519531 25.960938 23.566406 26.296875 23.671875 26.640625 C 23.867188 27.273438 24.070312 27.628906 24.246094 27.902344 C 24.234375 28.027344 24.121094 28.082031 24.097656 28.089844 Z M 24.675781 27.816406 C 24.484375 27.53125 24.269531 27.207031 24.054688 26.515625 C 23.960938 26.203125 23.917969 25.886719 23.875 25.574219 C 23.78125 24.890625 23.695312 24.242188 23.054688 23.921875 C 22.257812 23.519531 21.410156 24.09375 20.332031 24.820312 C 19.828125 25.160156 19.257812 25.542969 18.617188 25.871094 C 18.625 25.414062 18.550781 24.679688 18.035156 24.40625 C 17.566406 24.160156 16.84375 24.28125 16.316406 24.429688 C 16.195312 24.464844 16.070312 24.449219 15.957031 24.394531 C 15.691406 24.257812 15.144531 24.066406 14.46875 24.332031 C 13.566406 24.679688 13.476562 26.054688 13.46875 26.453125 C 13.316406 26.578125 13.199219 26.742188 13.121094 26.933594 C 13.035156 27.15625 13.035156 27.410156 13.121094 27.644531 C 13.183594 27.808594 13.28125 28.144531 13.261719 28.527344 C 13.242188 28.914062 13.078125 29.316406 12.941406 29.640625 C 12.867188 29.820312 12.804688 29.976562 12.78125 30.097656 C 12.742188 30.269531 12.75 30.402344 12.761719 30.523438 C 12.507812 30.375 12.21875 30.292969 11.894531 30.273438 C 11.976562 30.054688 11.972656 29.824219 11.96875 29.726562 C 11.957031 29.558594 11.882812 29.304688 11.789062 28.988281 C 11.703125 28.691406 11.605469 28.355469 11.554688 28.0625 C 11.527344 27.902344 11.523438 27.746094 11.519531 27.578125 C 11.515625 27.230469 11.507812 26.832031 11.246094 26.371094 C 11.066406 26.046875 10.804688 25.933594 10.578125 25.832031 C 10.453125 25.78125 10.34375 25.730469 10.25 25.652344 C 10.339844 25.148438 10.535156 24.4375 10.726562 24.304688 C 10.878906 24.199219 10.980469 24.199219 11.136719 24.195312 C 11.285156 24.191406 11.472656 24.1875 11.714844 24.078125 C 12.207031 23.847656 12.804688 23.09375 12.640625 22.265625 C 12.589844 22.003906 12.355469 21.578125 11.371094 21.671875 C 11.144531 21.695312 10.925781 21.613281 10.769531 21.445312 C 10.539062 21.199219 10.308594 21.074219 10.082031 21.074219 C 9.824219 21.074219 9.628906 21.183594 9.492188 21.296875 C 9.269531 20.839844 8.972656 20.425781 8.589844 20.171875 C 8.054688 19.808594 7.515625 19.742188 7.042969 19.6875 C 7.132812 19.355469 7.25 18.773438 7.101562 18.363281 C 6.988281 18.050781 6.738281 17.851562 6.519531 17.734375 L 6.53125 17.726562 C 6.75 17.59375 6.917969 17.398438 7.015625 17.164062 C 7.238281 16.632812 7.886719 15.425781 9.164062 15.226562 C 9.230469 15.492188 9.40625 15.703125 9.671875 15.816406 C 9.796875 15.871094 9.933594 15.898438 10.070312 15.898438 C 10.300781 15.898438 10.535156 15.816406 10.734375 15.671875 C 10.933594 15.878906 11.09375 16.132812 11.246094 16.382812 C 11.484375 16.773438 11.730469 17.175781 12.136719 17.414062 C 12.238281 17.472656 12.359375 17.535156 12.492188 17.589844 C 12.308594 18.066406 11.980469 19.105469 12.460938 19.539062 C 12.742188 19.792969 13.15625 19.832031 13.664062 19.65625 C 13.863281 19.585938 14.082031 19.605469 14.28125 19.707031 C 14.601562 19.875 15.066406 20.050781 15.589844 20.050781 C 15.710938 20.050781 15.835938 20.042969 15.964844 20.019531 C 16.796875 19.878906 17.136719 19.089844 17.226562 18.554688 C 17.492188 18.574219 17.738281 18.582031 17.964844 18.582031 C 18.398438 18.582031 18.925781 18.511719 19.539062 18.425781 C 20.375 18.308594 21.355469 18.175781 22.324219 18.214844 C 22.214844 18.65625 22.109375 19.515625 22.824219 19.855469 C 23.367188 20.117188 23.910156 20.019531 24.269531 19.898438 C 24.417969 19.84375 24.578125 19.859375 24.71875 19.933594 C 24.992188 20.078125 25.304688 20.152344 25.617188 20.152344 C 25.734375 20.152344 25.851562 20.136719 25.96875 20.117188 C 26.40625 20.917969 26.523438 21.886719 26.507812 22.808594 C 25.777344 22.886719 24.667969 23.304688 24.695312 24.503906 C 24.726562 25.851562 25.910156 26.472656 26.289062 26.636719 C 26.347656 26.980469 26.414062 27.230469 26.480469 27.472656 C 26.539062 27.675781 26.589844 27.871094 26.636719 28.125 C 26.71875 28.578125 26.507812 29.632812 26.355469 30.253906 C 25.992188 30.019531 25.484375 29.917969 24.996094 29.976562 C 25.105469 29.65625 25.210938 29.183594 25.085938 28.683594 C 24.992188 28.292969 24.839844 28.0625 24.675781 27.816406 Z M 26.324219 24.875 C 26.253906 25.394531 26.199219 25.804688 26.222656 26.070312 C 26.222656 26.097656 26.226562 26.117188 26.230469 26.144531 C 25.8125 25.914062 25.125 25.394531 25.101562 24.492188 C 25.082031 23.53125 26.046875 23.289062 26.496094 23.226562 C 26.460938 23.832031 26.386719 24.402344 26.324219 24.875 Z M 26.160156 30.71875 C 25.964844 30.804688 25.734375 30.992188 25.648438 31.382812 L 24.078125 31.382812 C 24.128906 30.964844 24.34375 30.660156 24.730469 30.449219 C 25.238281 30.289062 25.882812 30.386719 26.230469 30.664062 C 26.207031 30.691406 26.175781 30.710938 26.160156 30.71875 Z M 29.453125 25.707031 C 29.023438 25.824219 28.582031 25.769531 28.273438 25.566406 C 28.742188 25.070312 29.554688 24.816406 30.21875 25.15625 C 30.085938 25.410156 29.8125 25.609375 29.453125 25.707031 Z M 29.453125 25.707031 " fill-opacity="1" fill-rule="nonzero"/></g></svg>