<svg xmlns="http://www.w3.org/2000/svg" xmlns:xlink="http://www.w3.org/1999/xlink" width="48" zoomAndPan="magnify" viewBox="0 0 36 36.000001" height="48" preserveAspectRatio="xMidYMid meet" version="1.0"><defs><clipPath id="id1"><path d="M 8.5625 10.925781 L 27.535156 10.925781 L 27.535156 24.058594 L 8.5625 24.058594 Z M 8.5625 10.925781 " clip-rule="nonzero"/></clipPath></defs><path fill="#ffe9f0" d="M 11.167969 13.761719 C 11.167969 13.847656 11.136719 13.921875 11.078125 13.984375 C 11.015625 14.042969 10.941406 14.074219 10.855469 14.074219 C 10.769531 14.074219 10.695312 14.042969 10.636719 13.984375 C 10.574219 13.921875 10.542969 13.847656 10.542969 13.761719 C 10.542969 13.675781 10.574219 13.605469 10.636719 13.542969 C 10.695312 13.484375 10.769531 13.453125 10.855469 13.453125 C 10.941406 13.453125 11.015625 13.484375 11.078125 13.542969 C 11.136719 13.605469 11.167969 13.675781 11.167969 13.761719 Z M 11.167969 13.761719 " fill-opacity="1" fill-rule="nonzero"/><path fill="#ffe9f0" d="M 21.25 15.898438 C 21.101562 15.828125 20.984375 15.710938 20.917969 15.574219 C 20.75 15.226562 20.378906 14.644531 19.746094 14.644531 C 19.121094 14.644531 18.746094 15.128906 18.578125 15.417969 C 18.511719 15.535156 18.414062 15.625 18.296875 15.683594 C 17.964844 15.847656 17.410156 16.199219 17.410156 16.730469 C 17.410156 17.050781 17.5625 17.324219 17.851562 17.519531 C 18.027344 17.640625 18.140625 17.8125 18.167969 18.007812 C 18.238281 18.5 18.5 18.785156 18.910156 18.820312 C 18.945312 18.824219 18.976562 18.824219 19.007812 18.824219 C 19.46875 18.824219 19.707031 18.53125 19.914062 18.269531 C 20.050781 18.097656 20.175781 17.9375 20.355469 17.859375 C 20.515625 17.789062 20.777344 17.796875 21.03125 17.800781 C 21.542969 17.808594 22.175781 17.824219 22.28125 17.191406 C 22.359375 16.710938 21.992188 16.253906 21.25 15.898438 Z M 21.984375 17.140625 C 21.925781 17.480469 21.640625 17.511719 21.039062 17.503906 C 20.75 17.496094 20.457031 17.492188 20.234375 17.589844 C 19.988281 17.695312 19.832031 17.894531 19.679688 18.082031 C 19.46875 18.347656 19.300781 18.554688 18.933594 18.523438 C 18.839844 18.515625 18.539062 18.492188 18.464844 17.96875 C 18.425781 17.6875 18.269531 17.441406 18.023438 17.273438 C 17.816406 17.132812 17.710938 16.953125 17.710938 16.730469 C 17.710938 16.359375 18.160156 16.082031 18.429688 15.953125 C 18.601562 15.867188 18.742188 15.734375 18.839844 15.570312 C 18.972656 15.335938 19.273438 14.941406 19.746094 14.941406 C 20.210938 14.941406 20.507812 15.417969 20.644531 15.699219 C 20.742188 15.902344 20.910156 16.066406 21.117188 16.167969 C 21.472656 16.335938 22.058594 16.6875 21.984375 17.140625 Z M 21.984375 17.140625 " fill-opacity="1" fill-rule="nonzero"/><g clip-path="url(#id1)"><path fill="#ffe9f0" d="M 27.46875 19.089844 C 26.832031 18.675781 26.003906 18.894531 25.542969 19.367188 C 25.15625 18.898438 24.742188 18.183594 24.742188 17.265625 C 24.742188 17.261719 24.742188 17.261719 24.742188 17.261719 C 24.710938 16.367188 24.480469 15.445312 23.738281 14.800781 C 23.105469 14.257812 22.332031 14.042969 21.542969 13.988281 C 21.539062 13.988281 21.535156 13.984375 21.53125 13.984375 C 20.730469 13.929688 19.914062 14.039062 19.226562 14.132812 C 18.78125 14.191406 18.398438 14.246094 18.097656 14.246094 C 17.039062 14.246094 15.246094 13.960938 14.296875 13.613281 C 14.292969 13.613281 14.292969 13.609375 14.292969 13.609375 C 14.292969 13.609375 14.289062 13.609375 14.289062 13.609375 C 14.140625 13.554688 14.015625 13.5 13.917969 13.441406 C 13.679688 13.308594 13.523438 13.0625 13.359375 12.800781 C 13.238281 12.605469 13.109375 12.40625 12.9375 12.234375 C 13.246094 11.753906 12.851562 11.054688 12.832031 11.019531 C 12.796875 10.957031 12.71875 10.929688 12.648438 10.953125 C 12.546875 10.992188 11.753906 11.292969 11.574219 11.769531 C 11.203125 11.640625 10.90625 11.390625 10.671875 11.015625 C 10.640625 10.964844 10.582031 10.9375 10.519531 10.949219 C 10.460938 10.957031 10.410156 11 10.398438 11.058594 C 10.28125 11.527344 10.332031 11.917969 10.550781 12.246094 C 10.078125 12.617188 9.808594 13.125 9.6875 13.402344 C 9.640625 13.511719 9.554688 13.605469 9.449219 13.667969 L 8.839844 14.027344 C 8.664062 14.128906 8.570312 14.324219 8.597656 14.523438 C 8.671875 15 8.878906 15.339844 9.1875 15.476562 C 9.421875 15.578125 9.667969 15.605469 9.929688 15.632812 C 10.269531 15.671875 10.621094 15.707031 10.96875 15.933594 C 11.523438 16.296875 11.835938 17.277344 11.878906 17.855469 C 11.894531 18.054688 11.871094 18.222656 11.847656 18.398438 C 11.808594 18.679688 11.773438 18.96875 11.882812 19.382812 C 11.929688 19.5625 12 19.683594 12.082031 19.777344 C 12.082031 19.777344 12.082031 19.777344 12.085938 19.78125 C 12.128906 19.832031 12.179688 19.871094 12.230469 19.90625 C 12.289062 20.109375 12.511719 20.878906 12.53125 21.453125 C 12.542969 21.875 12.484375 22.328125 12.4375 22.632812 C 12.421875 22.730469 12.355469 22.820312 12.261719 22.875 C 11.953125 23.058594 11.773438 23.347656 11.773438 23.671875 C 11.773438 23.757812 11.84375 23.824219 11.925781 23.824219 L 12.554688 23.824219 C 12.554688 23.851562 12.550781 23.878906 12.550781 23.910156 C 12.550781 23.992188 12.617188 24.058594 12.703125 24.058594 L 13.886719 24.058594 C 13.984375 24.058594 14.074219 24.023438 14.144531 23.964844 C 14.289062 23.839844 14.464844 23.65625 14.511719 23.476562 C 14.511719 23.476562 14.511719 23.472656 14.511719 23.472656 C 14.515625 23.464844 14.515625 23.460938 14.515625 23.457031 C 14.546875 23.328125 14.539062 23.226562 14.53125 23.136719 C 14.523438 23.058594 14.519531 22.988281 14.539062 22.898438 C 14.550781 22.839844 14.597656 22.734375 14.644531 22.625 C 14.746094 22.382812 14.886719 22.050781 14.902344 21.722656 C 14.921875 21.40625 14.84375 21.136719 14.777344 20.964844 C 14.742188 20.863281 14.742188 20.761719 14.777344 20.667969 C 14.832031 20.539062 14.917969 20.441406 15.042969 20.375 C 15.175781 20.304688 15.417969 20.371094 15.703125 20.449219 C 16.109375 20.558594 16.621094 20.695312 17.21875 20.582031 C 17.71875 20.488281 18.171875 20.320312 18.589844 20.121094 C 18.660156 20.164062 18.773438 20.234375 18.925781 20.316406 C 18.851562 20.425781 18.796875 20.558594 18.765625 20.699219 C 18.714844 20.910156 18.726562 21.125 18.789062 21.300781 C 18.859375 21.496094 18.996094 21.632812 19.164062 21.671875 C 19.332031 21.707031 19.511719 21.644531 19.664062 21.5 C 19.796875 21.367188 19.898438 21.175781 19.945312 20.964844 C 19.960938 20.898438 19.96875 20.835938 19.972656 20.773438 C 20.054688 20.796875 20.132812 20.820312 20.210938 20.839844 C 20.183594 20.917969 20.167969 21 20.160156 21.085938 C 20.113281 21.566406 20.34375 21.964844 20.679688 21.996094 C 20.695312 22 20.707031 22 20.722656 22 C 20.734375 22 20.742188 21.996094 20.753906 21.996094 L 20.621094 22.828125 C 20.277344 23.007812 20.101562 23.3125 20.101562 23.714844 C 20.101562 23.796875 20.167969 23.863281 20.25 23.863281 L 21.339844 23.863281 C 21.394531 23.863281 21.449219 23.832031 21.472656 23.777344 C 21.589844 23.542969 21.765625 23.390625 22.015625 23.316406 C 22.019531 23.316406 22.027344 23.3125 22.03125 23.308594 C 22.035156 23.308594 22.042969 23.304688 22.046875 23.300781 C 22.066406 23.289062 22.082031 23.277344 22.09375 23.261719 C 22.097656 23.257812 22.097656 23.257812 22.097656 23.257812 C 22.105469 23.242188 22.113281 23.226562 22.117188 23.210938 C 22.117188 23.203125 22.117188 23.199219 22.121094 23.191406 C 22.121094 23.183594 22.121094 23.175781 22.121094 23.167969 C 22.097656 22.480469 22.148438 21.976562 22.289062 21.605469 C 22.445312 21.703125 22.613281 21.730469 22.765625 21.667969 C 22.839844 21.636719 22.902344 21.59375 22.949219 21.539062 C 23.011719 21.640625 23.058594 21.746094 23.097656 21.890625 C 23.203125 22.308594 23.015625 22.722656 22.953125 22.839844 C 22.539062 23.070312 22.328125 23.429688 22.328125 23.910156 C 22.328125 23.992188 22.394531 24.058594 22.476562 24.058594 L 23.933594 24.058594 C 24.011719 24.058594 24.074219 24 24.082031 23.921875 C 24.105469 23.671875 24.222656 23.59375 24.308594 23.554688 C 24.445312 23.492188 24.542969 23.371094 24.566406 23.234375 C 24.597656 23.113281 24.933594 21.882812 24.835938 21.359375 C 24.796875 21.164062 24.753906 21.011719 24.710938 20.863281 C 24.640625 20.609375 24.570312 20.367188 24.53125 19.910156 C 24.515625 19.75 24.554688 19.457031 24.601562 19.113281 C 24.628906 18.929688 24.65625 18.722656 24.683594 18.507812 C 24.878906 19.003906 25.167969 19.40625 25.429688 19.695312 C 25.429688 19.695312 25.429688 19.695312 25.433594 19.699219 C 25.433594 19.699219 25.433594 19.703125 25.4375 19.703125 C 25.648438 19.90625 25.964844 20.015625 26.300781 20.015625 C 26.4375 20.015625 26.574219 19.996094 26.710938 19.960938 C 27.125 19.851562 27.433594 19.585938 27.53125 19.253906 C 27.550781 19.191406 27.523438 19.125 27.46875 19.089844 Z M 23.859375 15.371094 C 23.652344 15.386719 23.433594 15.34375 23.253906 15.25 C 23.074219 15.160156 22.875 15.144531 22.683594 15.207031 C 22.46875 15.277344 22.144531 15.335938 21.835938 15.191406 C 21.476562 15.023438 21.578125 14.519531 21.644531 14.296875 C 22.335938 14.363281 23.003906 14.5625 23.539062 15.027344 C 23.664062 15.132812 23.765625 15.25 23.859375 15.371094 Z M 14.316406 13.933594 C 15.085938 14.191406 16.269531 14.410156 17.246094 14.5 C 17.199219 14.738281 17.042969 15.203125 16.5625 15.285156 C 16.140625 15.351562 15.75 15.214844 15.496094 15.085938 C 15.277344 14.976562 15.03125 14.957031 14.804688 15.03125 C 14.617188 15.09375 14.363281 15.144531 14.207031 15.007812 C 14.035156 14.855469 14.15625 14.328125 14.316406 13.933594 Z M 12.625 11.285156 C 12.71875 11.488281 12.863281 11.914062 12.628906 12.140625 C 12.429688 12.335938 12.195312 12.335938 12.050781 12.273438 C 11.917969 12.21875 11.839844 12.101562 11.839844 11.957031 C 11.839844 11.703125 12.28125 11.433594 12.625 11.285156 Z M 10.640625 11.476562 C 10.792969 11.660156 10.972656 11.804688 11.171875 11.914062 C 11.039062 11.957031 10.914062 12.011719 10.804688 12.078125 C 10.6875 11.902344 10.632812 11.707031 10.640625 11.476562 Z M 8.898438 14.480469 C 8.886719 14.402344 8.921875 14.324219 8.992188 14.285156 L 9.273438 14.121094 C 9.390625 14.15625 9.660156 14.265625 9.746094 14.488281 C 9.828125 14.703125 9.746094 15.082031 9.679688 15.300781 C 9.550781 15.28125 9.421875 15.253906 9.308594 15.203125 C 9.027344 15.078125 8.929688 14.695312 8.898438 14.480469 Z M 13.285156 22.90625 C 13.144531 22.789062 12.957031 22.722656 12.722656 22.714844 C 12.726562 22.703125 12.730469 22.691406 12.734375 22.679688 C 12.785156 22.359375 12.84375 21.890625 12.832031 21.445312 C 12.816406 20.984375 12.6875 20.429688 12.59375 20.085938 C 12.695312 20.132812 12.78125 20.1875 12.84375 20.300781 C 13 20.566406 13.003906 20.792969 13.007812 21.027344 C 13.011719 21.152344 13.015625 21.285156 13.039062 21.421875 C 13.078125 21.652344 13.15625 21.902344 13.222656 22.121094 C 13.28125 22.316406 13.335938 22.5 13.339844 22.589844 C 13.347656 22.675781 13.339844 22.8125 13.285156 22.90625 Z M 12.152344 19.210938 C 12.085938 18.902344 12.113281 18.675781 12.144531 18.4375 C 12.171875 18.253906 12.195312 18.066406 12.179688 17.832031 C 12.15625 17.546875 12.078125 17.164062 11.929688 16.785156 C 11.984375 16.726562 12.089844 16.632812 12.242188 16.632812 C 12.320312 16.632812 12.425781 16.695312 12.535156 16.8125 C 12.714844 16.996094 12.964844 17.089844 13.226562 17.066406 C 13.441406 17.046875 13.804688 17.042969 13.847656 17.253906 C 13.9375 17.691406 13.597656 18.109375 13.328125 18.230469 C 13.207031 18.285156 13.121094 18.285156 13.019531 18.289062 C 12.886719 18.289062 12.738281 18.292969 12.554688 18.417969 C 12.363281 18.542969 12.230469 18.90625 12.152344 19.210938 Z M 12.09375 23.523438 C 12.148438 23.316406 12.3125 23.195312 12.414062 23.132812 C 12.46875 23.101562 12.515625 23.058594 12.558594 23.015625 C 12.761719 23 12.917969 23.027344 13.03125 23.089844 C 12.824219 23.222656 12.691406 23.347656 12.617188 23.523438 Z M 13.949219 23.738281 C 13.929688 23.753906 13.910156 23.761719 13.886719 23.761719 L 12.859375 23.761719 C 12.886719 23.566406 12.992188 23.453125 13.328125 23.261719 C 13.679688 23.234375 13.960938 23.304688 14.1875 23.472656 C 14.144531 23.546875 14.058594 23.640625 13.949219 23.738281 Z M 17.160156 20.289062 C 16.632812 20.390625 16.160156 20.261719 15.78125 20.160156 C 15.511719 20.085938 15.269531 20.023438 15.0625 20.058594 C 15.09375 19.683594 15.222656 19.105469 15.605469 18.960938 C 15.980469 18.820312 16.285156 18.902344 16.46875 18.996094 C 16.621094 19.070312 16.789062 19.085938 16.953125 19.042969 C 17.421875 18.914062 17.808594 18.898438 18.011719 19.003906 C 18.277344 19.140625 18.296875 19.664062 18.273438 19.9375 C 17.929688 20.085938 17.558594 20.214844 17.160156 20.289062 Z M 21.363281 20.917969 C 21.507812 20.902344 21.65625 20.875 21.800781 20.839844 C 21.816406 20.925781 21.839844 21.015625 21.875 21.101562 C 21.921875 21.210938 21.984375 21.3125 22.050781 21.394531 C 21.882812 21.769531 21.8125 22.25 21.816406 22.914062 C 21.550781 22.785156 21.253906 22.730469 20.9375 22.757812 L 21.082031 21.839844 C 21.105469 21.816406 21.132812 21.792969 21.15625 21.761719 C 21.269531 21.617188 21.34375 21.414062 21.367188 21.199219 C 21.375 21.105469 21.375 21.007812 21.363281 20.917969 Z M 21.246094 23.566406 L 20.410156 23.566406 C 20.449219 23.335938 20.578125 23.175781 20.800781 23.074219 C 21.113281 23.023438 21.390625 23.050781 21.640625 23.160156 C 21.480469 23.257812 21.347656 23.390625 21.246094 23.566406 Z M 22.652344 21.390625 C 22.519531 21.445312 22.28125 21.292969 22.15625 20.988281 C 22.109375 20.875 22.082031 20.757812 22.085938 20.648438 C 22.085938 20.601562 22.0625 20.554688 22.023438 20.527344 C 21.988281 20.5 21.9375 20.488281 21.890625 20.503906 C 21.652344 20.578125 21.410156 20.621094 21.171875 20.636719 C 21.089844 20.644531 21.027344 20.722656 21.03125 20.804688 C 21.03125 20.816406 21.035156 20.828125 21.039062 20.835938 C 21.066406 20.9375 21.078125 21.050781 21.066406 21.171875 C 21.050781 21.328125 20.996094 21.480469 20.917969 21.582031 C 20.851562 21.664062 20.777344 21.707031 20.710938 21.699219 C 20.566406 21.6875 20.429688 21.441406 20.460938 21.113281 C 20.472656 21 20.5 20.894531 20.546875 20.804688 C 20.566406 20.761719 20.566406 20.710938 20.546875 20.671875 C 20.523438 20.628906 20.484375 20.597656 20.4375 20.589844 C 20.261719 20.550781 20.070312 20.496094 19.871094 20.417969 C 19.820312 20.402344 19.765625 20.410156 19.722656 20.441406 C 19.683594 20.476562 19.660156 20.527344 19.667969 20.582031 C 19.683594 20.679688 19.675781 20.789062 19.652344 20.898438 C 19.617188 21.054688 19.542969 21.195312 19.449219 21.285156 C 19.375 21.359375 19.296875 21.394531 19.230469 21.378906 C 19.164062 21.363281 19.105469 21.300781 19.070312 21.199219 C 19.027344 21.078125 19.023438 20.921875 19.058594 20.765625 C 19.09375 20.609375 19.167969 20.46875 19.261719 20.375 C 19.269531 20.363281 19.28125 20.347656 19.289062 20.335938 C 19.308594 20.300781 19.3125 20.257812 19.300781 20.222656 C 19.285156 20.183594 19.261719 20.152344 19.222656 20.132812 C 19.101562 20.070312 18.992188 20.011719 18.90625 19.960938 C 19.316406 19.742188 19.6875 19.5 20.019531 19.285156 C 20.738281 18.8125 21.308594 18.441406 21.746094 18.65625 C 22.0625 18.808594 22.121094 19.121094 22.1875 19.621094 C 22.222656 19.855469 22.257812 20.097656 22.335938 20.347656 C 22.480469 20.800781 22.632812 21.058594 22.761719 21.253906 C 22.753906 21.34375 22.671875 21.382812 22.652344 21.390625 Z M 23.082031 21.191406 C 22.941406 20.988281 22.78125 20.753906 22.621094 20.253906 C 22.550781 20.03125 22.519531 19.800781 22.488281 19.578125 C 22.417969 19.085938 22.351562 18.617188 21.878906 18.386719 C 21.285156 18.097656 20.65625 18.511719 19.855469 19.035156 C 19.480469 19.28125 19.058594 19.554688 18.582031 19.792969 C 18.585938 19.464844 18.53125 18.933594 18.148438 18.738281 C 17.800781 18.558594 17.261719 18.648438 16.871094 18.753906 C 16.78125 18.777344 16.6875 18.769531 16.605469 18.726562 C 16.410156 18.628906 16.003906 18.492188 15.5 18.683594 C 14.828125 18.933594 14.761719 19.925781 14.753906 20.210938 C 14.644531 20.304688 14.554688 20.417969 14.5 20.558594 C 14.433594 20.71875 14.433594 20.902344 14.496094 21.070312 C 14.542969 21.1875 14.617188 21.429688 14.601562 21.707031 C 14.589844 21.984375 14.464844 22.273438 14.367188 22.507812 C 14.3125 22.636719 14.261719 22.75 14.242188 22.835938 C 14.21875 22.960938 14.222656 23.058594 14.230469 23.140625 C 14.042969 23.035156 13.828125 22.976562 13.589844 22.960938 C 13.648438 22.804688 13.644531 22.636719 13.640625 22.570312 C 13.632812 22.445312 13.578125 22.265625 13.507812 22.039062 C 13.445312 21.824219 13.371094 21.582031 13.335938 21.371094 C 13.3125 21.253906 13.3125 21.140625 13.308594 21.023438 C 13.304688 20.769531 13.300781 20.484375 13.105469 20.152344 C 12.972656 19.917969 12.777344 19.835938 12.609375 19.765625 C 12.515625 19.726562 12.433594 19.691406 12.363281 19.632812 C 12.429688 19.269531 12.578125 18.757812 12.71875 18.664062 C 12.832031 18.589844 12.910156 18.585938 13.023438 18.585938 C 13.136719 18.582031 13.273438 18.582031 13.453125 18.5 C 13.820312 18.335938 14.261719 17.789062 14.140625 17.195312 C 14.105469 17.007812 13.929688 16.703125 13.199219 16.769531 C 13.03125 16.785156 12.867188 16.722656 12.75 16.605469 C 12.582031 16.425781 12.410156 16.335938 12.242188 16.335938 C 12.050781 16.335938 11.902344 16.414062 11.800781 16.496094 C 11.636719 16.167969 11.417969 15.871094 11.132812 15.6875 C 10.734375 15.425781 10.335938 15.378906 9.980469 15.339844 C 10.050781 15.101562 10.136719 14.679688 10.027344 14.382812 C 9.941406 14.160156 9.757812 14.015625 9.59375 13.929688 L 9.601562 13.925781 C 9.765625 13.828125 9.890625 13.6875 9.960938 13.519531 C 10.128906 13.136719 10.609375 12.269531 11.558594 12.125 C 11.609375 12.316406 11.738281 12.46875 11.933594 12.550781 C 12.03125 12.589844 12.128906 12.609375 12.230469 12.609375 C 12.402344 12.609375 12.574219 12.550781 12.726562 12.445312 C 12.871094 12.59375 12.992188 12.777344 13.105469 12.957031 C 13.28125 13.238281 13.464844 13.527344 13.765625 13.703125 C 13.839844 13.746094 13.929688 13.785156 14.03125 13.828125 C 13.894531 14.171875 13.648438 14.917969 14.007812 15.230469 C 14.214844 15.414062 14.523438 15.441406 14.902344 15.316406 C 15.050781 15.265625 15.214844 15.277344 15.359375 15.351562 C 15.597656 15.472656 15.941406 15.601562 16.332031 15.601562 C 16.421875 15.601562 16.515625 15.59375 16.609375 15.578125 C 17.226562 15.476562 17.480469 14.90625 17.546875 14.523438 C 17.746094 14.535156 17.929688 14.542969 18.09375 14.542969 C 18.417969 14.542969 18.8125 14.492188 19.265625 14.429688 C 19.886719 14.34375 20.613281 14.25 21.335938 14.277344 C 21.253906 14.597656 21.175781 15.214844 21.707031 15.460938 C 22.109375 15.648438 22.511719 15.578125 22.78125 15.488281 C 22.890625 15.453125 23.007812 15.460938 23.113281 15.515625 C 23.316406 15.621094 23.550781 15.675781 23.777344 15.675781 C 23.867188 15.675781 23.953125 15.664062 24.039062 15.648438 C 24.367188 16.226562 24.453125 16.921875 24.441406 17.585938 C 23.898438 17.640625 23.078125 17.945312 23.097656 18.804688 C 23.121094 19.777344 24 20.226562 24.28125 20.34375 C 24.324219 20.589844 24.371094 20.769531 24.421875 20.945312 C 24.464844 21.09375 24.503906 21.234375 24.539062 21.414062 C 24.601562 21.742188 24.441406 22.503906 24.328125 22.949219 C 24.058594 22.78125 23.683594 22.707031 23.320312 22.75 C 23.402344 22.519531 23.476562 22.179688 23.386719 21.820312 C 23.316406 21.535156 23.203125 21.371094 23.082031 21.191406 Z M 24.304688 19.074219 C 24.253906 19.449219 24.210938 19.742188 24.230469 19.9375 C 24.230469 19.953125 24.234375 19.96875 24.234375 19.988281 C 23.925781 19.824219 23.414062 19.449219 23.398438 18.800781 C 23.382812 18.105469 24.101562 17.933594 24.433594 17.890625 C 24.410156 18.324219 24.351562 18.734375 24.304688 19.074219 Z M 24.183594 23.28125 C 24.039062 23.347656 23.867188 23.480469 23.804688 23.761719 L 22.636719 23.761719 C 22.675781 23.460938 22.835938 23.242188 23.121094 23.089844 C 23.5 22.972656 23.980469 23.042969 24.238281 23.246094 C 24.21875 23.265625 24.195312 23.277344 24.183594 23.28125 Z M 26.632812 19.671875 C 26.3125 19.757812 25.984375 19.71875 25.753906 19.574219 C 26.101562 19.214844 26.703125 19.03125 27.199219 19.277344 C 27.101562 19.460938 26.894531 19.601562 26.632812 19.671875 Z M 26.632812 19.671875 " fill-opacity="1" fill-rule="nonzero"/></g></svg>