<svg xmlns="http://www.w3.org/2000/svg" xmlns:xlink="http://www.w3.org/1999/xlink" width="48" zoomAndPan="magnify" viewBox="0 0 36 36.000001" height="48" preserveAspectRatio="xMidYMid meet" version="1.0"><defs><clipPath id="id1"><path d="M 8.5625 21.851562 L 27.535156 21.851562 L 27.535156 34.984375 L 8.5625 34.984375 Z M 8.5625 21.851562 " clip-rule="nonzero"/></clipPath></defs><path fill="#ffe9f0" d="M 11.167969 24.6875 C 11.167969 24.773438 11.136719 24.847656 11.078125 24.90625 C 11.015625 24.96875 10.941406 25 10.855469 25 C 10.769531 25 10.695312 24.96875 10.636719 24.90625 C 10.574219 24.847656 10.542969 24.773438 10.542969 24.6875 C 10.542969 24.601562 10.574219 24.53125 10.636719 24.46875 C 10.695312 24.410156 10.769531 24.378906 10.855469 24.378906 C 10.941406 24.378906 11.015625 24.410156 11.078125 24.46875 C 11.136719 24.53125 11.167969 24.601562 11.167969 24.6875 Z M 11.167969 24.6875 " fill-opacity="1" fill-rule="nonzero"/><path fill="#ffe9f0" d="M 21.25 26.824219 C 21.101562 26.753906 20.984375 26.636719 20.917969 26.496094 C 20.75 26.152344 20.378906 25.566406 19.746094 25.566406 C 19.121094 25.566406 18.746094 26.054688 18.578125 26.34375 C 18.511719 26.460938 18.414062 26.550781 18.296875 26.609375 C 17.964844 26.773438 17.410156 27.125 17.410156 27.65625 C 17.410156 27.976562 17.5625 28.25 17.851562 28.445312 C 18.027344 28.566406 18.140625 28.738281 18.167969 28.933594 C 18.238281 29.421875 18.5 29.710938 18.910156 29.746094 C 18.945312 29.75 18.976562 29.75 19.007812 29.75 C 19.46875 29.75 19.707031 29.457031 19.914062 29.195312 C 20.050781 29.023438 20.175781 28.863281 20.355469 28.785156 C 20.515625 28.714844 20.777344 28.722656 21.03125 28.726562 C 21.542969 28.734375 22.175781 28.746094 22.28125 28.117188 C 22.359375 27.636719 21.992188 27.175781 21.25 26.824219 Z M 21.984375 28.066406 C 21.925781 28.40625 21.640625 28.4375 21.039062 28.429688 C 20.75 28.421875 20.457031 28.417969 20.234375 28.511719 C 19.988281 28.621094 19.832031 28.816406 19.679688 29.007812 C 19.46875 29.273438 19.300781 29.480469 18.933594 29.449219 C 18.839844 29.441406 18.539062 29.414062 18.464844 28.894531 C 18.425781 28.613281 18.269531 28.367188 18.023438 28.199219 C 17.816406 28.058594 17.710938 27.878906 17.710938 27.65625 C 17.710938 27.285156 18.160156 27.007812 18.429688 26.875 C 18.601562 26.792969 18.742188 26.660156 18.839844 26.492188 C 18.972656 26.257812 19.273438 25.867188 19.746094 25.867188 C 20.210938 25.867188 20.507812 26.34375 20.644531 26.625 C 20.742188 26.828125 20.910156 26.992188 21.117188 27.09375 C 21.472656 27.261719 22.058594 27.613281 21.984375 28.066406 Z M 21.984375 28.066406 " fill-opacity="1" fill-rule="nonzero"/><g clip-path="url(#id1)"><path fill="#ffe9f0" d="M 27.46875 30.015625 C 26.832031 29.601562 26.003906 29.820312 25.542969 30.292969 C 25.15625 29.824219 24.742188 29.109375 24.742188 28.191406 C 24.742188 28.1875 24.742188 28.1875 24.742188 28.1875 C 24.710938 27.292969 24.480469 26.371094 23.738281 25.726562 C 23.105469 25.179688 22.332031 24.96875 21.542969 24.910156 C 21.539062 24.910156 21.535156 24.910156 21.53125 24.910156 C 20.730469 24.855469 19.914062 24.964844 19.226562 25.058594 C 18.78125 25.117188 18.398438 25.171875 18.097656 25.171875 C 17.039062 25.171875 15.246094 24.886719 14.296875 24.539062 C 14.292969 24.539062 14.292969 24.535156 14.292969 24.535156 C 14.292969 24.535156 14.289062 24.535156 14.289062 24.535156 C 14.140625 24.480469 14.015625 24.425781 13.917969 24.367188 C 13.679688 24.234375 13.523438 23.988281 13.359375 23.726562 C 13.238281 23.53125 13.109375 23.328125 12.9375 23.15625 C 13.246094 22.679688 12.851562 21.980469 12.832031 21.945312 C 12.796875 21.882812 12.71875 21.855469 12.648438 21.878906 C 12.546875 21.917969 11.753906 22.21875 11.574219 22.695312 C 11.203125 22.5625 10.90625 22.316406 10.671875 21.941406 C 10.640625 21.890625 10.582031 21.863281 10.519531 21.875 C 10.460938 21.882812 10.410156 21.925781 10.398438 21.984375 C 10.28125 22.453125 10.332031 22.839844 10.550781 23.171875 C 10.078125 23.542969 9.808594 24.050781 9.6875 24.328125 C 9.640625 24.4375 9.554688 24.53125 9.449219 24.59375 L 8.839844 24.953125 C 8.664062 25.054688 8.570312 25.25 8.597656 25.449219 C 8.671875 25.925781 8.878906 26.265625 9.1875 26.398438 C 9.421875 26.503906 9.667969 26.53125 9.929688 26.558594 C 10.269531 26.597656 10.621094 26.632812 10.96875 26.859375 C 11.523438 27.222656 11.835938 28.203125 11.878906 28.78125 C 11.894531 28.980469 11.871094 29.148438 11.847656 29.324219 C 11.808594 29.605469 11.773438 29.894531 11.882812 30.308594 C 11.929688 30.484375 12 30.609375 12.082031 30.703125 C 12.082031 30.703125 12.082031 30.703125 12.085938 30.703125 C 12.128906 30.753906 12.179688 30.796875 12.230469 30.832031 C 12.289062 31.035156 12.511719 31.804688 12.53125 32.378906 C 12.542969 32.800781 12.484375 33.253906 12.4375 33.554688 C 12.421875 33.65625 12.355469 33.746094 12.261719 33.800781 C 11.953125 33.980469 11.773438 34.273438 11.773438 34.597656 C 11.773438 34.679688 11.84375 34.75 11.925781 34.75 L 12.554688 34.75 C 12.554688 34.777344 12.550781 34.804688 12.550781 34.835938 C 12.550781 34.917969 12.617188 34.984375 12.703125 34.984375 L 13.886719 34.984375 C 13.984375 34.984375 14.074219 34.949219 14.144531 34.886719 C 14.289062 34.765625 14.464844 34.582031 14.511719 34.402344 C 14.511719 34.398438 14.511719 34.398438 14.511719 34.398438 C 14.515625 34.390625 14.515625 34.386719 14.515625 34.382812 C 14.546875 34.25 14.539062 34.152344 14.53125 34.0625 C 14.523438 33.984375 14.519531 33.914062 14.539062 33.824219 C 14.550781 33.765625 14.597656 33.660156 14.644531 33.550781 C 14.746094 33.308594 14.886719 32.976562 14.902344 32.648438 C 14.921875 32.332031 14.84375 32.0625 14.777344 31.890625 C 14.742188 31.789062 14.742188 31.683594 14.777344 31.59375 C 14.832031 31.464844 14.917969 31.367188 15.042969 31.300781 C 15.175781 31.230469 15.417969 31.296875 15.703125 31.375 C 16.109375 31.484375 16.621094 31.621094 17.21875 31.507812 C 17.71875 31.414062 18.171875 31.246094 18.589844 31.046875 C 18.660156 31.089844 18.773438 31.160156 18.925781 31.238281 C 18.851562 31.351562 18.796875 31.480469 18.765625 31.625 C 18.714844 31.835938 18.726562 32.050781 18.789062 32.226562 C 18.859375 32.421875 18.996094 32.558594 19.164062 32.59375 C 19.332031 32.632812 19.511719 32.570312 19.664062 32.421875 C 19.796875 32.292969 19.898438 32.101562 19.945312 31.890625 C 19.960938 31.824219 19.96875 31.761719 19.972656 31.695312 C 20.054688 31.722656 20.132812 31.746094 20.210938 31.765625 C 20.183594 31.84375 20.167969 31.925781 20.160156 32.007812 C 20.113281 32.488281 20.34375 32.890625 20.679688 32.921875 C 20.695312 32.925781 20.707031 32.925781 20.722656 32.925781 C 20.734375 32.925781 20.742188 32.921875 20.753906 32.921875 L 20.621094 33.753906 C 20.277344 33.933594 20.101562 34.238281 20.101562 34.640625 C 20.101562 34.722656 20.167969 34.789062 20.25 34.789062 L 21.339844 34.789062 C 21.394531 34.789062 21.449219 34.753906 21.472656 34.703125 C 21.589844 34.46875 21.765625 34.316406 22.015625 34.242188 C 22.019531 34.242188 22.027344 34.238281 22.03125 34.234375 C 22.035156 34.234375 22.042969 34.230469 22.046875 34.226562 C 22.066406 34.214844 22.082031 34.203125 22.09375 34.1875 C 22.09375 34.183594 22.09375 34.183594 22.09375 34.183594 C 22.097656 34.183594 22.097656 34.183594 22.097656 34.183594 C 22.105469 34.167969 22.113281 34.152344 22.117188 34.136719 C 22.117188 34.128906 22.117188 34.125 22.121094 34.117188 C 22.121094 34.109375 22.121094 34.101562 22.121094 34.09375 C 22.097656 33.40625 22.148438 32.902344 22.289062 32.53125 C 22.445312 32.625 22.613281 32.652344 22.765625 32.589844 C 22.839844 32.5625 22.902344 32.519531 22.949219 32.464844 C 23.011719 32.566406 23.058594 32.671875 23.097656 32.816406 C 23.203125 33.234375 23.015625 33.648438 22.953125 33.765625 C 22.539062 33.996094 22.328125 34.355469 22.328125 34.835938 C 22.328125 34.917969 22.394531 34.984375 22.476562 34.984375 L 23.933594 34.984375 C 24.011719 34.984375 24.074219 34.925781 24.082031 34.847656 C 24.105469 34.597656 24.222656 34.519531 24.308594 34.480469 C 24.445312 34.417969 24.542969 34.296875 24.566406 34.160156 C 24.597656 34.039062 24.933594 32.804688 24.835938 32.285156 C 24.796875 32.089844 24.753906 31.9375 24.710938 31.789062 C 24.640625 31.53125 24.570312 31.292969 24.53125 30.835938 C 24.515625 30.675781 24.554688 30.382812 24.601562 30.039062 C 24.628906 29.855469 24.65625 29.648438 24.683594 29.429688 C 24.878906 29.929688 25.167969 30.328125 25.429688 30.621094 C 25.429688 30.621094 25.429688 30.621094 25.433594 30.621094 C 25.433594 30.625 25.433594 30.625 25.4375 30.628906 C 25.648438 30.832031 25.964844 30.941406 26.300781 30.941406 C 26.4375 30.941406 26.574219 30.921875 26.710938 30.886719 C 27.125 30.777344 27.433594 30.511719 27.53125 30.179688 C 27.550781 30.117188 27.523438 30.050781 27.46875 30.015625 Z M 23.859375 26.296875 C 23.652344 26.3125 23.433594 26.269531 23.253906 26.175781 C 23.074219 26.082031 22.875 26.066406 22.683594 26.132812 C 22.46875 26.203125 22.144531 26.257812 21.835938 26.113281 C 21.476562 25.949219 21.578125 25.445312 21.644531 25.222656 C 22.335938 25.285156 23.003906 25.488281 23.539062 25.953125 C 23.664062 26.058594 23.765625 26.175781 23.859375 26.296875 Z M 14.316406 24.859375 C 15.085938 25.117188 16.269531 25.335938 17.246094 25.425781 C 17.199219 25.664062 17.042969 26.128906 16.5625 26.210938 C 16.140625 26.277344 15.75 26.140625 15.496094 26.011719 C 15.277344 25.902344 15.03125 25.882812 14.804688 25.957031 C 14.617188 26.019531 14.363281 26.066406 14.207031 25.933594 C 14.035156 25.78125 14.15625 25.253906 14.316406 24.859375 Z M 12.625 22.210938 C 12.71875 22.414062 12.863281 22.839844 12.628906 23.066406 C 12.429688 23.257812 12.195312 23.257812 12.050781 23.199219 C 11.917969 23.144531 11.839844 23.027344 11.839844 22.882812 C 11.839844 22.628906 12.28125 22.359375 12.625 22.210938 Z M 10.640625 22.402344 C 10.792969 22.585938 10.972656 22.730469 11.171875 22.839844 C 11.039062 22.882812 10.914062 22.9375 10.804688 23.003906 C 10.6875 22.828125 10.632812 22.632812 10.640625 22.402344 Z M 8.898438 25.40625 C 8.886719 25.328125 8.921875 25.25 8.992188 25.210938 L 9.273438 25.042969 C 9.390625 25.082031 9.660156 25.1875 9.746094 25.414062 C 9.828125 25.628906 9.746094 26.007812 9.679688 26.226562 C 9.550781 26.207031 9.421875 26.179688 9.308594 26.128906 C 9.027344 26.003906 8.929688 25.621094 8.898438 25.40625 Z M 13.285156 33.832031 C 13.144531 33.714844 12.957031 33.648438 12.722656 33.640625 C 12.726562 33.628906 12.730469 33.617188 12.734375 33.605469 C 12.785156 33.285156 12.84375 32.816406 12.832031 32.371094 C 12.816406 31.910156 12.6875 31.351562 12.59375 31.011719 C 12.695312 31.058594 12.78125 31.113281 12.84375 31.226562 C 13 31.492188 13.003906 31.71875 13.007812 31.953125 C 13.011719 32.078125 13.015625 32.210938 13.039062 32.347656 C 13.078125 32.574219 13.15625 32.828125 13.222656 33.046875 C 13.28125 33.242188 13.335938 33.425781 13.339844 33.515625 C 13.347656 33.601562 13.339844 33.738281 13.285156 33.832031 Z M 12.152344 30.136719 C 12.085938 29.828125 12.113281 29.601562 12.144531 29.363281 C 12.171875 29.179688 12.195312 28.988281 12.179688 28.757812 C 12.15625 28.472656 12.078125 28.085938 11.929688 27.710938 C 11.984375 27.652344 12.089844 27.558594 12.242188 27.558594 C 12.320312 27.558594 12.425781 27.621094 12.535156 27.734375 C 12.714844 27.921875 12.964844 28.015625 13.226562 27.992188 C 13.441406 27.972656 13.804688 27.96875 13.847656 28.179688 C 13.9375 28.617188 13.597656 29.035156 13.328125 29.152344 C 13.207031 29.207031 13.121094 29.210938 13.019531 29.210938 C 12.886719 29.214844 12.738281 29.21875 12.554688 29.339844 C 12.363281 29.46875 12.230469 29.828125 12.152344 30.136719 Z M 12.09375 34.449219 C 12.148438 34.242188 12.3125 34.121094 12.414062 34.058594 C 12.46875 34.027344 12.515625 33.984375 12.558594 33.941406 C 12.761719 33.925781 12.917969 33.949219 13.03125 34.015625 C 12.824219 34.148438 12.691406 34.273438 12.617188 34.449219 Z M 13.949219 34.664062 C 13.929688 34.679688 13.910156 34.6875 13.886719 34.6875 L 12.859375 34.6875 C 12.886719 34.492188 12.992188 34.378906 13.328125 34.1875 C 13.679688 34.160156 13.960938 34.230469 14.1875 34.398438 C 14.144531 34.472656 14.058594 34.566406 13.949219 34.664062 Z M 17.160156 31.214844 C 16.632812 31.316406 16.160156 31.1875 15.78125 31.085938 C 15.511719 31.011719 15.269531 30.949219 15.0625 30.984375 C 15.09375 30.609375 15.222656 30.03125 15.605469 29.886719 C 15.980469 29.746094 16.285156 29.828125 16.46875 29.921875 C 16.621094 29.996094 16.789062 30.011719 16.953125 29.96875 C 17.421875 29.839844 17.808594 29.824219 18.011719 29.929688 C 18.277344 30.066406 18.296875 30.589844 18.273438 30.863281 C 17.929688 31.011719 17.558594 31.136719 17.160156 31.214844 Z M 21.363281 31.84375 C 21.507812 31.828125 21.65625 31.800781 21.800781 31.765625 C 21.816406 31.851562 21.839844 31.941406 21.875 32.027344 C 21.921875 32.136719 21.984375 32.234375 22.050781 32.320312 C 21.882812 32.695312 21.8125 33.175781 21.816406 33.839844 C 21.550781 33.710938 21.253906 33.65625 20.9375 33.683594 L 21.082031 32.765625 C 21.105469 32.742188 21.132812 32.71875 21.15625 32.6875 C 21.269531 32.542969 21.34375 32.339844 21.367188 32.125 C 21.375 32.027344 21.375 31.933594 21.363281 31.84375 Z M 21.246094 34.488281 L 20.410156 34.488281 C 20.449219 34.261719 20.578125 34.101562 20.800781 34 C 21.113281 33.949219 21.390625 33.976562 21.640625 34.082031 C 21.480469 34.183594 21.347656 34.316406 21.246094 34.488281 Z M 22.652344 32.316406 C 22.519531 32.371094 22.28125 32.21875 22.15625 31.910156 C 22.109375 31.796875 22.082031 31.683594 22.085938 31.574219 C 22.085938 31.527344 22.0625 31.480469 22.023438 31.453125 C 21.988281 31.425781 21.9375 31.414062 21.890625 31.429688 C 21.652344 31.503906 21.410156 31.546875 21.171875 31.5625 C 21.089844 31.570312 21.027344 31.648438 21.03125 31.730469 C 21.03125 31.738281 21.035156 31.75 21.039062 31.761719 C 21.066406 31.863281 21.078125 31.976562 21.066406 32.09375 C 21.050781 32.253906 20.996094 32.402344 20.917969 32.507812 C 20.851562 32.589844 20.777344 32.632812 20.710938 32.625 C 20.566406 32.613281 20.429688 32.367188 20.460938 32.039062 C 20.472656 31.925781 20.5 31.820312 20.546875 31.726562 C 20.566406 31.6875 20.566406 31.636719 20.546875 31.597656 C 20.523438 31.554688 20.484375 31.523438 20.4375 31.515625 C 20.261719 31.476562 20.070312 31.417969 19.871094 31.34375 C 19.820312 31.324219 19.765625 31.335938 19.722656 31.367188 C 19.683594 31.402344 19.660156 31.453125 19.667969 31.503906 C 19.683594 31.605469 19.675781 31.714844 19.652344 31.824219 C 19.617188 31.980469 19.542969 32.121094 19.449219 32.210938 C 19.375 32.285156 19.296875 32.320312 19.230469 32.304688 C 19.164062 32.289062 19.105469 32.226562 19.070312 32.125 C 19.027344 32.003906 19.023438 31.84375 19.058594 31.691406 C 19.09375 31.535156 19.167969 31.390625 19.261719 31.300781 C 19.269531 31.289062 19.28125 31.273438 19.289062 31.261719 C 19.308594 31.226562 19.3125 31.183594 19.300781 31.144531 C 19.285156 31.109375 19.261719 31.078125 19.222656 31.058594 C 19.101562 30.996094 18.992188 30.9375 18.90625 30.886719 C 19.316406 30.667969 19.6875 30.425781 20.019531 30.210938 C 20.738281 29.738281 21.308594 29.367188 21.746094 29.582031 C 22.0625 29.734375 22.121094 30.046875 22.1875 30.546875 C 22.222656 30.78125 22.257812 31.023438 22.335938 31.269531 C 22.480469 31.726562 22.632812 31.984375 22.761719 32.179688 C 22.753906 32.269531 22.671875 32.308594 22.652344 32.316406 Z M 23.082031 32.117188 C 22.941406 31.914062 22.78125 31.679688 22.621094 31.179688 C 22.550781 30.957031 22.519531 30.726562 22.488281 30.503906 C 22.417969 30.011719 22.351562 29.542969 21.878906 29.3125 C 21.285156 29.023438 20.65625 29.4375 19.855469 29.960938 C 19.480469 30.203125 19.058594 30.480469 18.582031 30.71875 C 18.585938 30.390625 18.53125 29.859375 18.148438 29.664062 C 17.800781 29.484375 17.261719 29.574219 16.871094 29.679688 C 16.78125 29.703125 16.6875 29.695312 16.605469 29.652344 C 16.410156 29.554688 16.003906 29.417969 15.5 29.609375 C 14.828125 29.859375 14.761719 30.851562 14.753906 31.136719 C 14.644531 31.226562 14.554688 31.34375 14.5 31.480469 C 14.433594 31.644531 14.433594 31.824219 14.496094 31.996094 C 14.542969 32.113281 14.617188 32.355469 14.601562 32.632812 C 14.589844 32.910156 14.464844 33.199219 14.367188 33.433594 C 14.3125 33.5625 14.261719 33.675781 14.242188 33.761719 C 14.21875 33.886719 14.222656 33.980469 14.230469 34.066406 C 14.042969 33.960938 13.828125 33.902344 13.589844 33.886719 C 13.648438 33.730469 13.644531 33.5625 13.640625 33.496094 C 13.632812 33.371094 13.578125 33.191406 13.507812 32.960938 C 13.445312 32.75 13.371094 32.507812 13.335938 32.296875 C 13.3125 32.179688 13.3125 32.066406 13.308594 31.949219 C 13.304688 31.695312 13.300781 31.410156 13.105469 31.078125 C 12.972656 30.84375 12.777344 30.761719 12.609375 30.691406 C 12.515625 30.652344 12.433594 30.617188 12.363281 30.558594 C 12.429688 30.195312 12.578125 29.683594 12.71875 29.589844 C 12.832031 29.515625 12.910156 29.511719 13.023438 29.511719 C 13.136719 29.507812 13.273438 29.507812 13.453125 29.425781 C 13.820312 29.261719 14.261719 28.714844 14.140625 28.121094 C 14.105469 27.929688 13.929688 27.625 13.199219 27.695312 C 13.03125 27.710938 12.867188 27.648438 12.75 27.53125 C 12.582031 27.351562 12.410156 27.261719 12.242188 27.261719 C 12.050781 27.261719 11.902344 27.339844 11.800781 27.421875 C 11.636719 27.09375 11.417969 26.796875 11.132812 26.609375 C 10.734375 26.351562 10.335938 26.304688 9.980469 26.265625 C 10.050781 26.027344 10.136719 25.605469 10.027344 25.308594 C 9.941406 25.085938 9.757812 24.941406 9.59375 24.855469 L 9.601562 24.851562 C 9.765625 24.753906 9.890625 24.613281 9.960938 24.445312 C 10.128906 24.0625 10.609375 23.195312 11.558594 23.050781 C 11.609375 23.242188 11.738281 23.394531 11.933594 23.476562 C 12.03125 23.515625 12.128906 23.535156 12.230469 23.535156 C 12.402344 23.535156 12.574219 23.476562 12.726562 23.371094 C 12.871094 23.519531 12.992188 23.703125 13.105469 23.882812 C 13.28125 24.164062 13.464844 24.453125 13.765625 24.625 C 13.839844 24.667969 13.929688 24.710938 14.03125 24.753906 C 13.894531 25.097656 13.648438 25.84375 14.007812 26.15625 C 14.214844 26.339844 14.523438 26.367188 14.902344 26.242188 C 15.050781 26.191406 15.214844 26.203125 15.359375 26.277344 C 15.597656 26.398438 15.941406 26.527344 16.332031 26.527344 C 16.421875 26.527344 16.515625 26.519531 16.609375 26.503906 C 17.226562 26.402344 17.480469 25.832031 17.546875 25.449219 C 17.746094 25.460938 17.929688 25.46875 18.09375 25.46875 C 18.417969 25.46875 18.8125 25.414062 19.265625 25.355469 C 19.886719 25.269531 20.613281 25.171875 21.335938 25.203125 C 21.253906 25.519531 21.175781 26.140625 21.707031 26.386719 C 22.109375 26.570312 22.511719 26.503906 22.78125 26.414062 C 22.890625 26.378906 23.007812 26.386719 23.113281 26.441406 C 23.316406 26.546875 23.550781 26.597656 23.777344 26.597656 C 23.867188 26.597656 23.953125 26.589844 24.039062 26.574219 C 24.367188 27.152344 24.453125 27.847656 24.441406 28.511719 C 23.898438 28.566406 23.078125 28.871094 23.097656 29.730469 C 23.121094 30.703125 24 31.148438 24.28125 31.269531 C 24.324219 31.515625 24.371094 31.695312 24.421875 31.871094 C 24.464844 32.019531 24.503906 32.160156 24.539062 32.339844 C 24.601562 32.667969 24.441406 33.425781 24.328125 33.875 C 24.058594 33.707031 23.683594 33.632812 23.320312 33.671875 C 23.402344 33.445312 23.476562 33.101562 23.386719 32.746094 C 23.316406 32.460938 23.203125 32.296875 23.082031 32.117188 Z M 24.304688 30 C 24.253906 30.375 24.210938 30.667969 24.230469 30.859375 C 24.230469 30.878906 24.234375 30.894531 24.234375 30.914062 C 23.925781 30.746094 23.414062 30.375 23.398438 29.722656 C 23.382812 29.03125 24.101562 28.859375 24.433594 28.8125 C 24.410156 29.25 24.351562 29.660156 24.304688 30 Z M 24.183594 34.207031 C 24.039062 34.273438 23.867188 34.40625 23.804688 34.6875 L 22.636719 34.6875 C 22.675781 34.386719 22.835938 34.167969 23.121094 34.015625 C 23.5 33.898438 23.980469 33.96875 24.238281 34.167969 C 24.21875 34.1875 24.195312 34.203125 24.183594 34.207031 Z M 26.632812 30.597656 C 26.3125 30.683594 25.984375 30.644531 25.753906 30.5 C 26.101562 30.140625 26.703125 29.957031 27.199219 30.203125 C 27.101562 30.382812 26.894531 30.527344 26.632812 30.597656 Z M 26.632812 30.597656 " fill-opacity="1" fill-rule="nonzero"/></g></svg>